<svg width="102" height="89" viewBox="0 0 102 89" fill="none" xmlns="http://www.w3.org/2000/svg"><path fill-rule="evenodd" clip-rule="evenodd" d="M8.067 52.862H2.548v-3.967h1.43v-1.01H.018v1.01H1.43v8.91H.019v1.011h3.959v-1.01h-1.43v-4.09h5.52v4.09H6.651v1.01h3.945v-1.01H9.185v-8.91h1.412v-1.011H6.652v1.01h1.415v3.967zm15.756 5.954v-1.01h-1.381l-4.35-9.921h-2.908v1.01h1.475l-4.023 8.91h-1.382v1.011h3.96v-1.01h-1.397l1.133-2.511h5.148l1.1 2.51h-1.445v1.011h4.07zm-4.052-4.424h-4.494l2.27-5.267 2.224 5.267zm14.126 3.414h-1.479l-2.314-2.986c1.895 0 3.354-1.516 3.354-3.37 0-1.07-.42-2.05-1.255-2.752-.854-.72-1.757-.813-2.83-.813H24.57v1.01H26v8.91h-1.43v1.011h3.87v-1.01h-1.322v-8.91h2.177c.839 0 1.556.029 2.21.627.557.505.839 1.207.839 1.976 0 .888-.468 1.716-1.244 2.188-.732.445-1.542.416-2.381.416h-.42l3.436 4.713h2.162v-1.01zm2.347 0h-1.43v1.01h4.94c1.616 0 2.875-.368 4.011-1.545a5.643 5.643 0 001.583-3.889c0-1.5-.557-2.956-1.646-4.011-1.166-1.118-2.362-1.486-3.948-1.486h-4.94v1.01h1.43v8.91zm1.118 0v-8.91h2.221c1.322 0 2.27.181 3.25 1.102.918.855 1.4 2.144 1.4 3.37 0 1.162-.497 2.387-1.307 3.23-.947.996-2.054 1.208-3.387 1.208h-2.177zm13.427-8.91h2.41v1.912h.959v-2.923h-7.86v2.923h.963v-1.913h2.41v8.91h-1.415v1.011h3.948v-1.01H50.79v-8.91zm6.697.43l4.134 9.49h.873l4.539-9.523v8.513h-1.43v1.01h3.974v-1.01h-1.43v-8.91h1.43v-1.011h-3.075l-4.417 9.278-4.022-9.278h-3.11v1.01h1.416v8.91h-1.415v1.011h3.993v-1.01h-1.46v-8.48zm21.758-.43h1.412v-1.011h-3.867v1.01h1.337v6.047c0 .78-.063 1.5-.575 2.143-.483.583-1.167.843-1.928.843-.825 0-1.556-.304-2.036-.962-.434-.627-.468-1.303-.468-2.039v-6.032h1.338v-1.01H70.59v1.01h1.411v6.155c0 1.103.127 2.006.918 2.864.713.765 1.679 1.114 2.719 1.114 1.043 0 2.039-.394 2.719-1.144.716-.814.887-1.687.887-2.697v-6.292zm6.976 0h2.41v1.912h.962v-2.923H81.73v2.923h.962v-1.913h2.414v8.91h-1.418v1.011h3.952v-1.01h-1.42v-8.91zm12.298 3.966h-5.52v-3.967h1.43v-1.01h-3.963v1.01h1.415v8.91h-1.415v1.011h3.963v-1.01h-1.43v-4.09h5.52v4.09h-1.42v1.01h3.949v-1.01h-1.415v-8.91h1.415v-1.011h-3.948v1.01h1.419v3.967z" fill="#000"/><path fill-rule="evenodd" clip-rule="evenodd" d="M51.467 3.324s.015 1.018-.925.81c0 0 .13.583.702.728 0 0-.572 1.215 1.033 1.642 0 0-1.085-.063-1.252.899 0 0-.182.898.728 1.303 0 0-1.679.23-1.044 1.668 0 0 .565 1.255 2.084 1.65 0 0 .85.248 2.102-.15 0 0 .9-.308 1.906-.334.913-.026 1.708.09 2.912.702 0 0 .353.167.728.48.293.24.706.653 1.1 1.117 0 0 .404.535.92.543 0 0 1.137.07 1.293-1.207 0 0 .104-1.014-.832-2.281 0 0-.527-.72-1.096-1.523-.494-.694-1.003-1.393-1.367-2.006 0 0-1.225-1.905-.223-4.078 0 0 .9-2.373 3.622-2.815 0 0 1.096-.197 2.087.156 0 0-.248 1.2.795 2.072 0 0 1.564 1.2 3.024-.13 0 0 .657.123.508.91 0 0-.104.457-.646.535 0 0 0 .932-.862 1.218 0 0-.356.145-.754.026 0 0-.404.829-1.277.346 0 0 .412-2.099-1.713-3.232 0 0-2.165-1.147-3.885.951 0 0-.835 1.03-.43 2.827 0 0 .3.899.772 1.5l1.98 2.842s.858 1.08.977 2.254c0 0 .193 1.014-.364 1.98 0 0-.29.546-1.122.821 0 0-.758.13-.95.899 0 0-.224 1.055.935 1.497 0 0 .821.315 1.616-.141 0 0 .783-.442.653-1.42 0 0 .483.796 1.185.558 0 0 .572-.063.836-.702 0 0-.327.91.468 1.46 0 0-1.055 1.407-.68 3.324 0 0 .316 1.913 2.021 3.034 0 0-1.445-.416-2.333.966 0 0-.69 1.222.212 2.307h-2.986s-.899.078-.958-.699c0 0 .026-.65-.52-.713 0 0-.268-.037-.476.182 0 0-.063-.226-.026-.386 0 0 .167-1.174 1.783-1.278 0 0 1.345-.026 1.642-.873 0 0 .664-1.682-.52-2.306 0 0-.78-.602-2.842.806 0 0-.743.587-1.003 1.096 0 0-2.083-.067-3.335-5.416 0 0-1.218.052-1.564 1.564 0 0-.33 1.772.26 2.622 0 0 .398.695.921.576 0 0-.869.327-.66 1.352 0 0-.677-1.155-2.697.657 0 0-1.252 1.081-1.954 2.842h-3.48s-.665-.026-.628-.74c0 0 .03-.586-.45-.709 0 0-.24-.07-.468.141l.03-.349s.153-1.07 1.765-1.196c0 0 .754-.082 1.407.35 0 0 .754.467 1.965-.35 0 0 2.058-1.396.899-2.975 0 0-1.263-1.6-3.283-.635 0 0 .494-1.709 2.752-3.376 0 0 1.523-1.163 2.812-1.341 0 0-1.668-.706-4.948.754 0 0-1.916.795-2.388 2.124 0 0-.249-.665-1.029-.68 0 0-.69-.077-1.133.81 0 0 .011-.81-.706-.94 0 0-.494-.089-.82.327 0 0 .04-.728-.806-.846 0 0-.862-.026-.9.924 0 0-.52-.846-2.425.104 0 0-1.367.613-2.254 2.359 0 0-1.757-.743-2.946.977 0 0 .041-.546-.587-.598-.624-.052-.676.52-.676.52-.542-.301-.412-.918-.412-.918.082-.352-.078-.538-.078-.538s-.23-.32-.813-.171c0 0-.271-1.096.794-1.969 0 0 .494-.39.914-.378 0 0 .286.624 1.497.312 0 0 1.605-.353 3.413-1.902 0 0 2.114-1.798 1.62-2.983 0 0-.46-1.017-3.41.62 0 0 .59-.802-1.003-2.21 0 0-1.08-1.043-3.03-1.21 0 0 .03-1.91-2.006-2.366 0 0 .52-.171.334-.77-.186-.6-.735-.434-.735-.434.074-.616.694-.724.694-.724.364-.056.472-.275.472-.275s.212-.334-.141-.817c0 0 .913-.665 2.12.004 0 0 .55.312.691.702 0 0-.471.501.272 1.508 0 0 .925 1.355 3.038 2.455 0 0 2.697 1.21 2.515-.955 0 0 .52.175 1.043.26 0 0 1.382.323 2.043.063 0 0 1.155-.234 1.352-1.771 0 0-.98.093-1.311.65 0 0-.152-.84-1.118-1.252 0 0 .843-.178 1.367-.394 0 0 1.1-.4.382-.601.918-.327.858-.825.858-.825 0-.186-.04-.286-.14-.394-.688-.739-2.252-.312-2.252-.312-.382.093-1.058.517-.683 1.126 0 0-1.025-.223-1.267-2.41 0 0-.29-.773.714-1.085 0 0 .542-.676 1.704-.64 0 0 1.757-1.485 3.856-1.143 0 0 1.385.193 1.965.854 0 0 1.225.26 2.054-1.118 0 0 1.322 1.742-1.089 2.841 0 0 .903 1 1.564.483z" fill="#E30613"/><path fill-rule="evenodd" clip-rule="evenodd" d="M43.657 6.047c-.962.216-1.36-.115-1.36-.115s-2.176.546-3.086-1.311c0 0-.197-.29-.442-.145-.386.386.49 1.289.49 1.289.758.732 1.861.761 1.861.761 1.668.064 2.537-.479 2.537-.479zM56.551 75.667l-5.545-3.273 3.684-.003 1.861 3.276zm-3.814-6.95l3.688.004-5.545 3.276 1.857-3.28zm-2.24 3.09l-1.894-3.272 1.901-3.157-.007 6.43zm-.011 7.173l-1.872-3.176L50.5 72.54l-.015 6.44zm-5.958-3.384l1.82-3.205 3.766.003-5.586 3.202zm.063-6.879l3.685-.004 1.857 3.28-5.542-3.276zm12.584-.397l-4.427.018-2.229-3.706-2.247 3.688h-4.39l2.169 3.81-2.17 3.86h4.391l2.247 3.74 2.214-3.74h4.442l-2.147-3.819 2.147-3.851z" fill="#E30613"/><path fill-rule="evenodd" clip-rule="evenodd" d="M34.638 87.358c0 .431-.157.776-.465 1.04-.282.242-.631.364-1.047.364-.216 0-.405-.037-.565-.108a1.524 1.524 0 01-.471-.364v.338h-.717v-1.285h.962a.62.62 0 00.208.476c.137.13.293.197.468.197a.531.531 0 00.382-.138.54.54 0 00.164-.416c0-.264-.182-.453-.546-.564-.197-.052-.39-.108-.584-.164-.356-.126-.616-.282-.783-.464-.193-.208-.29-.483-.29-.825 0-.412.145-.746.431-.995.271-.234.598-.35.992-.35.193 0 .36.03.497.09.138.056.279.156.424.297v-.267h.698v1.177h-.925a.484.484 0 00-.148-.371.545.545 0 00-.398-.145.56.56 0 00-.353.1c-.1.078-.156.2-.156.364 0 .178.09.32.264.423.119.075.29.134.516.179.171.037.342.089.506.167.263.115.471.26.623.434.208.234.313.502.313.81zM35.657 83.687h.94v-.954h-.94v.954zm-.553.535v.932h.527v2.537h-.538v.94h2.01v-.94h-.491v-3.469h-1.508zM41.935 88.632h-1.86v-.94h.486v-1.771a.799.799 0 00-.234-.58.742.742 0 00-.554-.245.786.786 0 00-.676.36.886.886 0 00-.185.51v1.726h.471v.94H37.56v-.94h.482v-2.536h-.501v-.933h1.37v.572c.272-.475.65-.717 1.145-.717.449 0 .794.168 1.04.498.234.327.352.769.352 1.334v1.782h.487v.94zM46.604 87.138a2.255 2.255 0 01-.802 1.18c-.371.29-.791.431-1.252.431-.605 0-1.125-.226-1.56-.683a2.28 2.28 0 01-.657-1.642c0-.62.215-1.162.643-1.63.423-.465.91-.698 1.46-.698.24 0 .452.048.642.14.167.082.349.22.542.413v-.43h.817v1.496h-.895a1.213 1.213 0 00-.442-.472 1.276 1.276 0 00-.635-.145 1.07 1.07 0 00-.858.405c-.212.257-.32.572-.32.94 0 .36.12.676.357.936.238.264.528.394.866.394.456 0 .798-.212 1.028-.635h1.066zM50.407 86.067a1.355 1.355 0 00-.382-.765 1.093 1.093 0 00-.788-.309c-.345 0-.635.104-.869.309a1.397 1.397 0 00-.423.765h2.462zm.922.341a1.632 1.632 0 01-.037.423h-3.358c.067.313.226.565.483.766.24.193.512.29.81.29.226 0 .412-.045.553-.13.122-.07.252-.2.397-.394h.973a2.222 2.222 0 01-.758 1.032 1.922 1.922 0 01-1.166.368c-.635 0-1.155-.23-1.567-.687-.398-.442-.594-.984-.594-1.63 0-.632.211-1.174.635-1.631.427-.457.94-.683 1.537-.683.606 0 1.11.237 1.516.716.382.454.575.974.575 1.56zM53.964 82.72v.932h.82v3.981h-.657v.97h2.344v-.951h-.661v-4.933h-1.846zM56.957 82.729v1.901h1l-.004-.954h1.623l-2.147 4.955h1.136l2.077-4.918v-.984h-3.685zM64.202 84.788c0-.308-.104-.572-.316-.79a1.016 1.016 0 00-.757-.328.947.947 0 00-.721.323 1.114 1.114 0 00-.297.777c0 .297.104.553.308.769.204.219.45.326.732.326.286 0 .531-.107.739-.315a1.04 1.04 0 00.312-.762zm1.021.063c0 .26-.044.517-.137.766-.067.189-.17.39-.312.601l-1.567 2.414h-1.163l1.296-1.946c-.13.052-.2.078-.223.086a.96.96 0 01-.245.03c-.535 0-.965-.201-1.3-.61-.312-.386-.471-.854-.471-1.415 0-.598.204-1.107.605-1.534.405-.427.891-.642 1.46-.642.568 0 1.055.222 1.456.664.4.442.601.974.601 1.586zM68.653 86.95v-2.515c0-.227-.097-.423-.286-.59a.966.966 0 00-.672-.253c-.253 0-.48.089-.669.271-.182.17-.27.353-.27.542v2.519c0 .241.096.449.293.612.193.168.42.25.668.25.234 0 .446-.09.643-.272.193-.182.293-.371.293-.564zm1.051-.078c0 .497-.204.936-.605 1.318-.405.383-.866.576-1.39.576-.52 0-.984-.193-1.392-.572-.412-.383-.617-.814-.617-1.296v-2.556c0-.42.197-.813.594-1.188.416-.394.88-.591 1.39-.591.516 0 .984.197 1.396.583.416.386.624.806.624 1.26v2.466z" fill="#000"/><path fill-rule="evenodd" clip-rule="evenodd" d="M0 72.44h43.88v-.512H0v.513zM57.163 72.44h43.884v-.512H57.163v.513zM.019 18.873h30.33v-.513H.02v.513zM69.677 18.873h31.356v-.513H69.677v.513z" fill="#E30613"/><path fill-rule="evenodd" clip-rule="evenodd" d="M36.995 39.467h3.945v-1.338h-3.945v1.338zM11.405 42.085h-1.07l-4.457-4.267 4.275-3.93h.992v-1.89h-4.88v1.89h1.07l-3.752 3.558v-3.558h1.255v-1.89H.054v1.89h1.274v8.197H.006v1.891h4.832v-1.89H3.583v-3.778l3.926 3.777H6.302v1.891h5.103v-1.89zm10.79-8.58c-1.222-1.214-2.69-1.823-4.398-1.823-1.75 0-3.253.609-4.509 1.827-1.255 1.218-1.887 2.686-1.887 4.398 0 1.742.617 3.239 1.85 4.49 1.23 1.248 2.715 1.876 4.46 1.876 1.747 0 3.236-.631 4.47-1.89 1.229-1.263 1.845-2.768 1.845-4.517 0-1.69-.609-3.146-1.831-4.36zm-1.671 7.258c-.777.791-1.713 1.189-2.812 1.189-1.107 0-2.05-.401-2.823-1.207-.776-.806-1.163-1.765-1.163-2.879 0-1.08.405-2.002 1.211-2.756.806-.758 1.765-1.137 2.879-1.137 1.084 0 2.002.387 2.748 1.163a3.89 3.89 0 011.118 2.79c0 1.099-.386 2.046-1.158 2.837zm15.923 1.304h-1.27v-8.179h1.27v-1.89h-4.773v1.89h1.274l-.011 2.882h-4.725v-2.882h1.3v-1.89H24.74v1.89h1.274v8.179H24.68v1.89h4.832v-1.89h-1.244v-2.96h4.68v2.96h-1.334v1.89h4.833v-1.89zm9.805.018h-1.274v-8.197h1.274v-1.89h-4.88v1.89h1.37v8.197H41.42v1.891h4.832v-1.89zM64.16 31.997h-4.791v1.891h1.274l-.012 6.106-5.697-7.997h-3.377v1.891h1.263v8.197h-1.322v1.891h4.862v-1.89h-1.226l-.01-6.033 5.619 7.923h2.124V33.888l1.293-.011v-1.88zm11.206 1.508c-1.222-1.214-2.69-1.823-4.398-1.823-1.75 0-3.25.609-4.509 1.827-1.255 1.218-1.883 2.686-1.883 4.398 0 1.742.617 3.239 1.846 4.49 1.23 1.248 2.719 1.876 4.46 1.876 1.75 0 3.24-.631 4.47-1.89 1.232-1.263 1.845-2.768 1.845-4.517 0-1.69-.609-3.146-1.831-4.36zm-1.671 7.258c-.777.791-1.713 1.189-2.812 1.189-1.107 0-2.047-.401-2.823-1.207-.773-.806-1.163-1.765-1.163-2.879 0-1.08.405-2.002 1.211-2.756a4.063 4.063 0 012.879-1.137c1.088 0 2.006.387 2.748 1.163a3.894 3.894 0 011.122 2.79c0 1.099-.39 2.046-1.162 2.837zm14.872-7.258c-1.219-1.214-2.686-1.823-4.398-1.823-1.746 0-3.25.609-4.506 1.827-1.259 1.218-1.886 2.686-1.886 4.398 0 1.742.616 3.239 1.846 4.49 1.233 1.248 2.718 1.876 4.46 1.876 1.75 0 3.24-.631 4.472-1.89 1.23-1.263 1.846-2.768 1.846-4.517 0-1.69-.612-3.146-1.834-4.36zm-1.672 7.258c-.776.791-1.712 1.189-2.812 1.189-1.106 0-2.046-.401-2.819-1.207-.776-.806-1.162-1.765-1.162-2.879 0-1.08.4-2.002 1.21-2.756.807-.758 1.765-1.137 2.88-1.137 1.084 0 2.001.387 2.748 1.163a3.89 3.89 0 011.118 2.79c0 1.099-.387 2.046-1.163 2.837zm14.144 1.322h-1.363l-1.85-2.34c.977-.241 1.698-.605 2.158-1.088.569-.594.851-1.46.851-2.6 0-1.044-.394-1.976-1.178-2.797-.802-.843-1.756-1.263-2.856-1.263h-5.939v1.891h1.255v8.197h-1.333v1.891h4.572v-1.89h-.965V38.65l3.751 5.326h2.897v-1.89zm-3.205-4.275c-.453.401-1.014.602-1.69.602H94.39v-4.353h2.258c.531 0 .984.226 1.367.676.356.427.535.899.535 1.415 0 .68-.242 1.233-.717 1.66zM46.933 39.474h3.94v-1.345h-3.94v1.345z" fill="#000"/></svg>