<svg width="142" height="28" viewBox="0 0 142 28" fill="none" xmlns="http://www.w3.org/2000/svg"><path fill-rule="evenodd" clip-rule="evenodd" d="M28.698 6.37l6.824 16.11c.871 2.2.531 4.135-2.504 4.59v.302h12.514v-.303c-1.367-.192-2.807-1.177-3.719-3.337L31.766.002h-.376L28.698 6.37zM53.142 27.485c6.18 1.138 11.867-3.03 11.867-7.657 0-9.287-13.839-8.112-13.839-15.013 0-2.806 2.086-4.283 4.36-4.283 3.486 0 5.801 2.503 7.659 7.543h.303l-.38-6.746C60.684.61 58.373 0 55.53 0c-5.195 0-9.175 3.64-9.175 7.547 0 8.983 13.646 7.352 13.646 14.633 0 3.297-2.88 5.686-6.823 4.925l-.037.38zM77.618 5.347c-.871-2.197-.531-4.132 2.504-4.586V.458H67.608v.303c1.367.188 2.807 1.174 3.719 3.334l10.043 23.73h.76l8.91-21.038c1.816-4.472 3.448-5.27 5.191-6.026V.458h-9.855v.303c4.623.72 4.775 3.903 3.94 5.989l-6.063 14.29-6.635-15.693zM102.552 22.33c0 2.389-.568 4.283-3.6 4.737v.307h12.51v-.307c-3.035-.454-3.604-2.348-3.604-4.737V5.497c0-2.385.569-4.283 3.604-4.738V.457h-12.51v.302c3.032.455 3.6 2.353 3.6 4.738V22.33zM116.337.457l-.38 8.68h.303c2.123-5.76 5.383-8.075 8.835-8.075h1.138V22.33c0 2.389-.569 4.283-3.981 4.737v.307h13.267v-.307c-3.412-.454-3.98-2.348-3.98-4.737V1.062h1.137c3.448 0 6.709 2.315 8.832 8.075h.303l-.377-8.68h-25.097zM8.91 26.765V5.498c0-2.39.568-4.283 4.36-4.737V.458H0V.76c3.035.454 3.604 2.348 3.604 4.737V22.33c0 2.389-.569 4.283-3.604 4.737v.307h22.217l2.274-9.785-.303-.037c-1.48 4.627-5.043 9.212-11.564 9.212H8.91z" fill="#000"/></svg>