<svg width="134" height="61" viewBox="0 0 134 61" fill="none" xmlns="http://www.w3.org/2000/svg"><path fill-rule="evenodd" clip-rule="evenodd" d="M93.532 23.428c-8.287-.277-15.101 3.023-20.783 6.214a10.247 10.247 0 00-1.981-1.268c3.497-7.191 10.913-11.088 15.093-12.62l7.671 7.674zM72.452 5.992c-2.945 3.128-5.195 8.177-6.045 12.95-.971-4.92-3.111-9.924-5.834-13.058L66.457 0l5.995 5.992zm-22.21 8.1c6.598 3.377 10.534 7.984 13.168 13.71a10.212 10.212 0 012.398-.424c-.741-8.327-2.903-15.327-8.34-20.514l-7.225 7.227zm-10.854 9.336c8.232-.277 15.012 2.975 20.675 6.153a9.743 9.743 0 012.056-1.28c-3.51-7.143-10.891-11.018-15.057-12.547l-7.674 7.674zm43.292-9.337c-6.622 3.39-10.558 8.013-13.19 13.764a10.385 10.385 0 00-2.378-.466c.739-8.33 2.903-15.332 8.34-20.525l7.228 7.227zM129.436 42.068h-1.735c-.061 0-.091-.03-.091-.094v-2.648c0-.06.03-.094.091-.094h1.735c.966 0 1.532.572 1.532 1.426 0 .852-.566 1.41-1.532 1.41zm-1.982 5.732c.097 0 .156-.061.156-.156v-3.516c0-.061.03-.095.091-.095h1.874c2.278 0 3.674-1.393 3.674-3.375 0-2.015-1.382-3.391-3.674-3.391h-4.086c-.097 0-.155.06-.155.15v10.227c0 .095.058.156.155.156h1.965zm-9.364.172c2.356 0 4.027-1.424 4.027-4.044v-6.511c0-.09-.058-.15-.156-.15h-1.965c-.091 0-.155.06-.155.15v6.572c0 1.257-.697 1.968-1.751 1.968-1.066 0-1.763-.71-1.763-1.968v-6.572c0-.09-.069-.15-.161-.15h-1.965c-.091 0-.155.06-.155.15v6.511c0 2.62 1.676 4.044 4.044 4.044zm-11.111-2.015c-.874 0-1.432-.433-1.662-1.16-.122-.375-.17-.883-.17-2.262 0-1.38.048-1.89.17-2.265.23-.727.788-1.16 1.662-1.16.863 0 1.419.433 1.654 1.16.125.375.173.885.173 2.265 0 1.38-.048 1.887-.173 2.262-.235.727-.791 1.16-1.654 1.16zm0 2.015c1.843 0 3.295-.852 3.842-2.56.23-.724.294-1.312.294-2.877 0-1.568-.064-2.157-.294-2.884-.547-1.704-1.999-2.554-3.842-2.554-1.848 0-3.305.85-3.847 2.554-.23.727-.294 1.316-.294 2.884 0 1.565.064 2.154.294 2.878.542 1.707 1.999 2.559 3.847 2.559zm-10.486-6.123h-1.856c-.064 0-.092-.028-.092-.091v-2.432c0-.06.028-.094.092-.094h1.856c.87 0 1.433.51 1.433 1.304 0 .805-.564 1.313-1.433 1.313zm3.8 5.95c.108 0 .155-.093.108-.182l-2.079-4.155c1.163-.511 1.874-1.582 1.874-2.926 0-1.923-1.424-3.27-3.572-3.27h-4.208a.143.143 0 00-.15.15v10.228c0 .095.061.156.15.156h1.974c.091 0 .155-.061.155-.156v-3.763c0-.061.028-.092.092-.092h1.412l1.813 3.855c.047.111.089.156.23.156h2.201zm-18.984-2.386c.538 1.707 1.995 2.559 3.871 2.559 1.86 0 3.317-.947 3.842-2.634.186-.575.26-1.44.26-2.373v-.863c0-.095-.058-.156-.15-.156h-3.63c-.091 0-.15.061-.15.156v1.485c0 .094.059.152.15.152h1.43c.058 0 .091.034.091.095 0 .45-.044.777-.122 1.038-.216.696-.902 1.085-1.693 1.085-.91 0-1.485-.433-1.715-1.16-.128-.375-.172-.883-.172-2.262 0-1.38.044-1.877.172-2.251.23-.725.788-1.174 1.687-1.174.87 0 1.394.372 1.81 1.082.033.078.108.108.217.078l1.66-.694c.09-.05.105-.142.063-.236-.5-1.268-1.785-2.243-3.75-2.243-1.876 0-3.333.85-3.871 2.554-.24.727-.297 1.316-.297 2.884 0 1.565.058 2.154.297 2.878zm-14.41 2.231c0 .095.063.156.155.156h6.86c.095 0 .159-.061.159-.156v-1.718c0-.094-.064-.152-.158-.152h-4.65c-.06 0-.091-.034-.091-.095v-8.262c0-.09-.061-.15-.155-.15h-1.965c-.092 0-.156.06-.156.15v10.227zm-8.452-3.78l1.193-3.686h.047l1.197 3.686h-2.437zm-3.564 3.78c-.028.095 0 .156.111.156h2.029c.11 0 .172-.045.202-.156l.589-1.843H61.5l.605 1.843c.03.111.091.156.2.156h2.017c.109 0 .136-.061.109-.156l-3.564-10.227c-.033-.09-.094-.15-.2-.15h-1.954c-.11 0-.172.06-.2.15l-3.63 10.227zm-4.743 0c0 .095.06.156.155.156h1.965c.095 0 .153-.061.153-.156V37.417c0-.09-.058-.15-.153-.15h-1.965c-.094 0-.155.06-.155.15v10.227zm-6.687-5.795h-1.86c-.06 0-.094-.028-.094-.091v-2.432c0-.06.034-.094.095-.094h1.86c.87 0 1.426.51 1.426 1.304 0 .805-.555 1.313-1.427 1.313zm3.797 5.95c.108 0 .153-.093.108-.182l-2.076-4.155c1.163-.511 1.877-1.582 1.877-2.926 0-1.923-1.43-3.27-3.584-3.27h-4.193c-.095 0-.158.062-.158.15v10.228c0 .095.063.156.158.156h1.968c.091 0 .15-.061.15-.156v-3.763c0-.061.033-.092.094-.092h1.413l1.812 3.855c.047.111.091.156.23.156h2.201zm-18.024-.155c0 .095.061.156.153.156h6.758c.092 0 .156-.061.156-.156V45.99c0-.094-.064-.158-.156-.158H31.6c-.066 0-.094-.03-.094-.092v-2.187c0-.06.028-.091.094-.091h3.775c.094 0 .158-.059.158-.153v-1.646c0-.091-.064-.152-.158-.152h-3.775c-.066 0-.094-.031-.094-.095v-2.09c0-.06.028-.094.094-.094h4.538c.092 0 .156-.058.156-.153v-1.662c0-.09-.064-.15-.156-.15H29.38c-.092 0-.153.06-.153.15v10.227zm-6.514-5.576h-1.738c-.058 0-.091-.03-.091-.094v-2.648c0-.06.033-.094.091-.094h1.738c.96 0 1.535.572 1.535 1.426 0 .852-.575 1.41-1.535 1.41zM20.727 47.8c.095 0 .156-.061.156-.156v-3.516c0-.061.033-.095.091-.095h1.877c2.276 0 3.672-1.393 3.672-3.375 0-2.015-1.377-3.391-3.672-3.391h-4.089c-.094 0-.158.06-.158.15v10.227c0 .095.064.156.158.156h1.965zM5.54 47.644c0 .095.058.156.153.156h1.754c.091 0 .152-.061.152-.156v-5.93h.061l1.954 4.446c.061.136.153.202.295.202h1.068c.139 0 .23-.067.294-.203l1.951-4.446h.062v5.931c0 .095.063.156.158.156h1.748c.095 0 .156-.061.156-.156V37.417c0-.09-.061-.15-.156-.15h-1.812c-.122 0-.197.044-.247.15l-2.623 6.011h-.058l-2.665-6.011c-.044-.106-.125-.15-.247-.15H5.693c-.095 0-.153.06-.153.15v10.227zm-5.54 0c0 .095.064.156.158.156h1.968c.094 0 .153-.061.153-.156V37.417c0-.09-.059-.15-.153-.15H.158c-.094 0-.158.06-.158.15v10.227zM108.398 60.792c.064 0 .1-.036.1-.1v-2.59l2.001-3.96c.025-.053 0-.1-.078-.1h-1.246c-.069 0-.119.03-.15.1l-1.221 2.464h-.033l-1.216-2.464c-.033-.07-.08-.1-.15-.1h-1.29c-.073 0-.092.047-.073.1l1.996 3.96v2.59c0 .064.042.1.1.1h1.26zm-7.774-3.808H99.43c-.039 0-.058-.022-.058-.064v-1.557c0-.041.02-.058.058-.058h1.194c.558 0 .913.327.913.835 0 .514-.355.844-.913.844zm2.428 3.808c.073 0 .1-.056.073-.12l-1.333-2.661c.744-.328 1.205-1.01 1.205-1.87 0-1.233-.916-2.099-2.298-2.099h-2.69c-.058 0-.094.039-.094.1v6.55c0 .064.036.1.094.1h1.266c.058 0 .097-.036.097-.1v-2.41c0-.04.02-.06.058-.06h.905l1.163 2.47c.025.072.058.1.15.1h1.404zm-11.507-2.52l.763-2.365h.028l.766 2.365h-1.557zm-2.284 2.42c-.02.064 0 .1.067.1h1.304c.072 0 .108-.028.13-.1l.375-1.18H93.5l.386 1.18c.022.072.058.1.13.1h1.296c.064 0 .084-.036.064-.1l-2.284-6.55c-.02-.061-.058-.1-.128-.1H91.71c-.064 0-.106.039-.122.1l-2.326 6.55zm-3.866.1c.058 0 .102-.036.122-.1l2.142-6.539c.017-.072-.02-.111-.08-.111h-1.28c-.069 0-.108.03-.127.1l-1.313 4.427h-.028l-1.349-4.427c-.022-.07-.058-.1-.133-.1h-1.288c-.075 0-.11.039-.089.111l2.143 6.54c.02.063.058.099.128.099h1.152zm-13.517 0c.055 0 .1-.036.1-.1v-2.59l1.993-3.96c.03-.053 0-.1-.067-.1h-1.252c-.072 0-.12.03-.15.1l-1.22 2.464h-.031l-1.224-2.464c-.028-.07-.075-.1-.148-.1h-1.29c-.067 0-.089.047-.067.1l1.993 3.96v2.59c0 .064.039.1.1.1h1.263zm-7.569 0c.056 0 .1-.036.117-.1l2.142-6.539c.025-.072-.016-.111-.075-.111h-1.282c-.067 0-.111.03-.128.1l-1.312 4.427h-.031l-1.349-4.427c-.02-.07-.058-.1-.127-.1H60.97c-.07 0-.105.039-.089.111l2.143 6.54c.022.063.061.099.133.099h1.152zm-8.282-1.182c-.558 0-.916-.275-1.066-.744-.078-.236-.11-.564-.11-1.449 0-.883.032-1.207.11-1.449.15-.466.508-.744 1.066-.744.55 0 .91.278 1.06.744.078.242.108.566.108 1.449 0 .885-.03 1.213-.108 1.449-.15.469-.51.744-1.06.744zm0 1.293c1.177 0 2.112-.544 2.459-1.64.15-.467.189-.841.189-1.846 0-1.002-.04-1.377-.189-1.846-.347-1.09-1.282-1.637-2.46-1.637-1.184 0-2.117.547-2.464 1.637-.15.47-.188.844-.188 1.846 0 1.005.038 1.38.188 1.846.347 1.096 1.28 1.64 2.465 1.64zm-9.448-.21c0 .063.039.099.1.099h4.396c.061 0 .1-.036.1-.1v-1.099c0-.061-.039-.1-.1-.1h-2.978c-.036 0-.06-.02-.06-.058v-5.293c0-.061-.04-.1-.1-.1h-1.258c-.061 0-.1.039-.1.1v6.55zm-5.235-3.709h-1.193c-.039 0-.058-.022-.058-.064v-1.557c0-.041.02-.058.058-.058h1.193c.558 0 .91.327.91.835 0 .514-.352.844-.91.844zm2.432 3.808c.072 0 .1-.056.072-.12l-1.332-2.661c.744-.328 1.202-1.01 1.202-1.87 0-1.233-.916-2.099-2.293-2.099h-2.692c-.059 0-.1.039-.1.1v6.55c0 .064.041.1.1.1h1.263c.055 0 .097-.036.097-.1v-2.41c0-.04.02-.06.058-.06h.905l1.163 2.47c.027.072.06.1.147.1h1.41zm-11.51-2.52l.766-2.365h.03l.764 2.365h-1.56zm-2.282 2.42c-.022.064 0 .1.067.1h1.304c.067 0 .106-.028.128-.1l.375-1.18h2.364l.389 1.18c.02.072.056.1.125.1h1.29c.073 0 .09-.036.073-.1l-2.284-6.55c-.023-.061-.059-.1-.128-.1h-1.252c-.072 0-.108.039-.128.1l-2.323 6.55zm-7.649 0c0 .064.036.1.1.1h1.26c.058 0 .1-.036.1-.1v-1.718l.88-1.11 1.532 2.84c.041.069.066.088.15.088h1.457c.072 0 .1-.047.06-.12l-2.233-3.938 2.045-2.564c.05-.059.02-.128-.041-.128h-1.438c-.08 0-.12.02-.17.092l-2.242 2.922v-2.914c0-.061-.042-.1-.1-.1h-1.26c-.064 0-.1.039-.1.1v6.55z" fill="#000" fill-opacity=".8"/></svg>