<svg width="102" height="89" viewBox="0 0 102 89" fill="none" xmlns="http://www.w3.org/2000/svg">
<path fill-rule="evenodd" clip-rule="evenodd" d="M8.06741 52.8621H2.54798V48.8952H3.97798V47.8849H0.0185547V48.8952H1.42998V57.8058H0.0185547V58.8161H3.97798V57.8058H2.54798V53.7164H8.06741V57.8058H6.65227V58.8161H10.5968V57.8058H9.18541V48.8952H10.5968V47.8849H6.65227V48.8952H8.06741V52.8621ZM23.8234 58.8161V57.8058H22.4417L18.0923 47.8849H15.184V48.8952H16.6586L12.636 57.8058H11.2543V58.8161H15.2137V57.8058H13.8171L14.95 55.2949H20.098L21.1974 57.8058H19.7526V58.8161H23.8234ZM19.7711 54.3924H15.2768L17.5463 49.1255L19.7711 54.3924ZM33.8966 57.8058H32.4183L30.1043 54.8195C31.9986 54.8195 33.4583 53.3041 33.4583 51.4507C33.4583 50.3809 33.0386 49.4004 32.2028 48.6984C31.3486 47.9778 30.446 47.8849 29.3726 47.8849H24.57V48.8952H26V57.8058H24.57V58.8161H28.4403V57.8058H27.118V48.8952H29.2946C30.134 48.8952 30.8508 48.9249 31.5046 49.5229C32.0617 50.0281 32.344 50.7301 32.344 51.4989C32.344 52.3867 31.876 53.2149 31.0997 53.6867C30.368 54.1324 29.5583 54.1027 28.7188 54.1027H28.2991L31.7348 58.8161H33.8966V57.8058ZM36.244 57.8058H34.814V58.8161H39.754C41.3697 58.8161 42.6288 58.4484 43.7654 57.2709C44.7757 56.2161 45.3477 54.8195 45.3477 53.3821C45.3477 51.8815 44.7906 50.4255 43.7023 49.3707C42.536 48.2527 41.34 47.8849 39.754 47.8849H34.814V48.8952H36.244V57.8058ZM37.362 57.8058V48.8952H39.5831C40.9054 48.8952 41.8526 49.0772 42.8331 49.9984C43.7506 50.8527 44.2334 52.1415 44.2334 53.3672C44.2334 54.5298 43.7357 55.7555 42.926 56.5987C41.9788 57.5941 40.872 57.8058 39.5386 57.8058H37.362ZM50.7891 48.8952H53.1997V50.8081H54.158V47.8849H46.2986V50.8081H47.2606V48.8952H49.6711V57.8058H48.256V58.8161H52.2043V57.8058H50.7891V48.8952ZM57.486 49.3261L61.62 58.8161H62.4928L67.0317 49.2927V57.8058H65.6017V58.8161H69.576V57.8058H68.146V48.8952H69.576V47.8849H66.5005L62.0843 57.1632L58.0617 47.8849H54.9528V48.8952H56.368V57.8058H54.9528V58.8161H58.9457V57.8058H57.486V49.3261ZM79.2443 48.8952H80.6557V47.8849H76.7891V48.8952H78.1263V54.9421C78.1263 55.7221 78.0631 56.4427 77.5506 57.0852C77.0677 57.6684 76.3843 57.9284 75.6228 57.9284C74.7983 57.9284 74.0666 57.6238 73.5874 56.9664C73.1528 56.3387 73.1194 55.6627 73.1194 54.9272V48.8952H74.4566V47.8849H70.59V48.8952H72.0014V55.0498C72.0014 56.1529 72.1277 57.0555 72.9188 57.9135C73.632 58.6787 74.5977 59.0278 75.6377 59.0278C76.6814 59.0278 77.6768 58.6341 78.3566 57.8838C79.0734 57.0704 79.2443 56.1975 79.2443 55.1872V48.8952ZM86.2197 48.8952H88.6303V50.8081H89.5923V47.8849H81.7291V50.8081H82.6911V48.8952H85.1054V57.8058H83.6866V58.8161H87.6386V57.8058H86.2197V48.8952ZM98.5177 52.8621H92.9983V48.8952H94.4283V47.8849H90.4651V48.8952H91.8803V57.8058H90.4651V58.8161H94.4283V57.8058H92.9983V53.7164H98.5177V57.8058H97.0988V58.8161H101.047V57.8058H99.632V48.8952H101.047V47.8849H97.0988V48.8952H98.5177V52.8621Z" fill="black"/>
<path fill-rule="evenodd" clip-rule="evenodd" d="M51.4671 3.32429C51.4671 3.32429 51.482 4.342 50.5422 4.134C50.5422 4.134 50.6722 4.71714 51.2442 4.862C51.2442 4.862 50.6722 6.07657 52.2768 6.50371C52.2768 6.50371 51.1922 6.44057 51.0251 7.40257C51.0251 7.40257 50.8431 8.30143 51.7531 8.70629C51.7531 8.70629 50.0742 8.93657 50.7094 10.374C50.7094 10.374 51.274 11.6294 52.7931 12.0231C52.7931 12.0231 53.6437 12.272 54.8954 11.8746C54.8954 11.8746 55.7942 11.5663 56.8008 11.5403C57.7145 11.5143 58.5094 11.6294 59.7128 12.2423C59.7128 12.2423 60.0657 12.4094 60.4408 12.7214C60.7342 12.9629 61.1465 13.3751 61.5402 13.8394C61.5402 13.8394 61.9451 14.3743 62.4614 14.3817C62.4614 14.3817 63.598 14.4523 63.754 13.1746C63.754 13.1746 63.858 12.1606 62.922 10.894C62.922 10.894 62.3945 10.1734 61.8262 9.37114C61.3322 8.67657 60.8234 7.97829 60.4594 7.36543C60.4594 7.36543 59.2337 5.46 60.2365 3.28714C60.2365 3.28714 61.1354 0.913714 63.858 0.471714C63.858 0.471714 64.9537 0.274857 65.9454 0.627714C65.9454 0.627714 65.6965 1.82743 66.7402 2.70029C66.7402 2.70029 68.304 3.9 69.7637 2.57029C69.7637 2.57029 70.4211 2.69286 70.2725 3.48029C70.2725 3.48029 70.1685 3.93714 69.6262 4.01514C69.6262 4.01514 69.6262 4.94743 68.7645 5.23343C68.7645 5.23343 68.408 5.37829 68.0105 5.25943C68.0105 5.25943 67.6057 6.08771 66.7328 5.60486C66.7328 5.60486 67.1451 3.50629 65.0205 2.37343C65.0205 2.37343 62.8551 1.22571 61.1354 3.32429C61.1354 3.32429 60.2997 4.35314 60.7045 6.15086C60.7045 6.15086 61.0054 7.04971 61.4771 7.65143L63.4568 10.4929C63.4568 10.4929 64.3148 11.5737 64.4337 12.7474C64.4337 12.7474 64.6268 13.7614 64.0697 14.7271C64.0697 14.7271 63.78 15.2731 62.948 15.548C62.948 15.548 62.1902 15.678 61.9971 16.4469C61.9971 16.4469 61.7742 17.5017 62.9331 17.9437C62.9331 17.9437 63.754 18.2594 64.5488 17.8026C64.5488 17.8026 65.3325 17.3606 65.2025 16.3837C65.2025 16.3837 65.6854 17.1786 66.3874 16.9409C66.3874 16.9409 66.9594 16.8777 67.2231 16.2389C67.2231 16.2389 66.8962 17.1489 67.6911 17.6986C67.6911 17.6986 66.6362 19.1063 67.0114 21.0229C67.0114 21.0229 67.3271 22.9357 69.032 24.0574C69.032 24.0574 67.5871 23.6414 66.6994 25.0231C66.6994 25.0231 66.0085 26.2451 66.9111 27.3297H63.9248C63.9248 27.3297 63.026 27.4077 62.9665 26.6314C62.9665 26.6314 62.9925 25.9814 62.4465 25.9183C62.4465 25.9183 62.1791 25.8811 61.9711 26.1003C61.9711 26.1003 61.908 25.8737 61.9451 25.714C61.9451 25.714 62.1122 24.5403 63.728 24.4363C63.728 24.4363 65.0725 24.4103 65.3697 23.5634C65.3697 23.5634 66.0345 21.8809 64.8497 21.2569C64.8497 21.2569 64.0697 20.6551 62.0082 22.0629C62.0082 22.0629 61.2654 22.6497 61.0054 23.1586C61.0054 23.1586 58.9217 23.0917 57.67 17.7431C57.67 17.7431 56.4517 17.7951 56.1062 19.3069C56.1062 19.3069 55.7757 21.0786 56.3662 21.9291C56.3662 21.9291 56.7637 22.6237 57.2874 22.5049C57.2874 22.5049 56.4182 22.8317 56.6262 23.8569C56.6262 23.8569 55.9502 22.7017 53.9297 24.5143C53.9297 24.5143 52.678 25.5951 51.976 27.3557H48.4957C48.4957 27.3557 47.8308 27.3297 47.868 26.6166C47.868 26.6166 47.8977 26.0297 47.4185 25.9071C47.4185 25.9071 47.1771 25.8366 46.9505 26.0483L46.9802 25.6991C46.9802 25.6991 47.1325 24.6294 48.7445 24.5031C48.7445 24.5031 49.4985 24.4214 50.1522 24.8523C50.1522 24.8523 50.9062 25.3203 52.1171 24.5031C52.1171 24.5031 54.1748 23.1066 53.016 21.528C53.016 21.528 51.7531 19.9271 49.7325 20.8929C49.7325 20.8929 50.2265 19.1843 52.4848 17.5166C52.4848 17.5166 54.0077 16.354 55.2965 16.1757C55.2965 16.1757 53.6288 15.47 50.3491 16.9297C50.3491 16.9297 48.4325 17.7246 47.9608 19.0543C47.9608 19.0543 47.712 18.3894 46.932 18.3746C46.932 18.3746 46.2411 18.2966 45.7991 19.1843C45.7991 19.1843 45.8102 18.3746 45.0934 18.2446C45.0934 18.2446 44.5994 18.1554 44.2725 18.5714C44.2725 18.5714 44.3134 17.8434 43.4665 17.7246C43.4665 17.7246 42.6048 17.6986 42.5677 18.6494C42.5677 18.6494 42.0477 17.8026 40.1422 18.7534C40.1422 18.7534 38.7754 19.3663 37.8877 21.112C37.8877 21.112 36.1308 20.3691 34.9422 22.0889C34.9422 22.0889 34.9831 21.5429 34.3554 21.4909C33.7314 21.4389 33.6794 22.0109 33.6794 22.0109C33.1371 21.71 33.2671 21.0934 33.2671 21.0934C33.3488 20.7406 33.1891 20.5549 33.1891 20.5549C33.1891 20.5549 32.9588 20.2354 32.3757 20.384C32.3757 20.384 32.1045 19.2883 33.1705 18.4154C33.1705 18.4154 33.6645 18.0254 34.0842 18.0366C34.0842 18.0366 34.3702 18.6606 35.5811 18.3486C35.5811 18.3486 37.1857 17.9957 38.9945 16.4469C38.9945 16.4469 41.108 14.6491 40.614 13.4643C40.614 13.4643 40.1534 12.4466 37.2042 14.0846C37.2042 14.0846 37.7948 13.2823 36.2014 11.8746C36.2014 11.8746 35.1205 10.8309 33.1705 10.6637C33.1705 10.6637 33.2002 8.75457 31.1648 8.29771C31.1648 8.29771 31.6848 8.12686 31.4991 7.52886C31.3134 6.92714 30.7637 7.09429 30.7637 7.09429C30.838 6.47771 31.4582 6.37 31.4582 6.37C31.8222 6.31429 31.93 6.09514 31.93 6.09514C31.93 6.09514 32.1417 5.76086 31.7888 5.278C31.7888 5.278 32.7025 4.61314 33.9097 5.28171C33.9097 5.28171 34.4594 5.59371 34.6005 5.98371C34.6005 5.98371 34.1288 6.48514 34.8717 7.49171C34.8717 7.49171 35.7965 8.84743 37.91 9.94686C37.91 9.94686 40.6065 11.1577 40.4245 8.99229C40.4245 8.99229 40.9445 9.16686 41.4682 9.25229C41.4682 9.25229 42.85 9.57543 43.5111 9.31543C43.5111 9.31543 44.6662 9.08143 44.8631 7.54371C44.8631 7.54371 43.8825 7.63657 43.552 8.19371C43.552 8.19371 43.3997 7.35429 42.434 6.942C42.434 6.942 43.2771 6.76371 43.8008 6.54829C43.8008 6.54829 44.9002 6.14714 44.1834 5.94657C45.1008 5.61971 45.0414 5.122 45.0414 5.122C45.0414 4.93629 45.0005 4.836 44.9002 4.72829C44.2131 3.98914 42.6494 4.41629 42.6494 4.41629C42.2668 4.50914 41.5908 4.93257 41.966 5.54171C41.966 5.54171 40.9408 5.31886 40.6994 3.13114C40.6994 3.13114 40.4097 2.35857 41.4125 2.04657C41.4125 2.04657 41.9548 1.37057 43.1174 1.40771C43.1174 1.40771 44.8742 -0.078 46.9728 0.263714C46.9728 0.263714 48.3582 0.456857 48.9377 1.118C48.9377 1.118 50.1634 1.378 50.9917 0C50.9917 0 52.314 1.742 49.9034 2.84143C49.9034 2.84143 50.806 3.84057 51.4671 3.32429Z" fill="#E30613"/>
<path fill-rule="evenodd" clip-rule="evenodd" d="M43.6572 6.04724C42.6952 6.26267 42.2978 5.9321 42.2978 5.9321C42.2978 5.9321 40.1212 6.4781 39.2112 4.62095C39.2112 4.62095 39.0144 4.33124 38.7692 4.4761C38.3829 4.86238 39.2595 5.76495 39.2595 5.76495C40.0172 6.49667 41.1204 6.52638 41.1204 6.52638C42.7881 6.58952 43.6572 6.04724 43.6572 6.04724Z" fill="#E30613"/>
<path fill-rule="evenodd" clip-rule="evenodd" d="M56.5513 75.6667L51.0058 72.3944L54.6904 72.3907L56.5513 75.6667ZM52.7367 68.7172L56.425 68.721L50.8796 71.997L52.7367 68.7172ZM50.497 71.8075L48.6027 68.5352L50.5044 65.3781L50.497 71.8075ZM50.4858 78.9798L48.6138 75.8041L50.5007 72.5392L50.4858 78.9798ZM44.5281 75.5961L46.3481 72.3907L50.1144 72.3944L44.5281 75.5961ZM44.5913 68.7172L48.2758 68.7135L50.133 71.9932L44.5913 68.7172ZM57.1753 68.3198L52.7478 68.3384L50.5193 64.6315L48.2721 68.3198H43.8818L46.051 72.1307L43.8818 75.9898H48.2721L50.5193 79.7301L52.733 75.9898H57.1753L55.0284 72.1715L57.1753 68.3198Z" fill="#E30613"/>
<path fill-rule="evenodd" clip-rule="evenodd" d="M34.6375 87.3581C34.6375 87.789 34.4815 88.1344 34.1732 88.3981C33.891 88.6396 33.5418 88.7621 33.1258 88.7621C32.9104 88.7621 32.721 88.725 32.5612 88.6544C32.4015 88.5801 32.2418 88.4576 32.0895 88.2904V88.6284H31.3727V87.3433H32.3347C32.3347 87.529 32.4015 87.6887 32.5427 87.8187C32.6801 87.9487 32.8361 88.0156 33.0107 88.0156C33.1667 88.0156 33.2967 87.971 33.3932 87.8781C33.501 87.7779 33.5567 87.6404 33.5567 87.4621C33.5567 87.1984 33.3747 87.009 33.0107 86.8976C32.8138 86.8456 32.6207 86.7899 32.4275 86.7341C32.071 86.6079 31.811 86.4519 31.6438 86.2699C31.4507 86.0619 31.3541 85.787 31.3541 85.4453C31.3541 85.033 31.499 84.6987 31.785 84.4499C32.0561 84.2159 32.383 84.1007 32.7767 84.1007C32.9698 84.1007 33.137 84.1304 33.2744 84.1899C33.4118 84.2456 33.553 84.3459 33.6978 84.487V84.2196H34.3961V85.397H33.4712C33.4712 85.2447 33.423 85.1184 33.3227 85.0256C33.2224 84.929 33.0924 84.8807 32.9252 84.8807C32.7767 84.8807 32.6578 84.9141 32.5724 84.981C32.4721 85.059 32.4164 85.1816 32.4164 85.345C32.4164 85.5233 32.5055 85.6644 32.6801 85.7684C32.799 85.8427 32.9698 85.9021 33.1964 85.9467C33.3672 85.9839 33.5381 86.0359 33.7015 86.1139C33.9652 86.229 34.1732 86.3739 34.3255 86.5484C34.5335 86.7824 34.6375 87.0499 34.6375 87.3581Z" fill="black"/>
<path fill-rule="evenodd" clip-rule="evenodd" d="M35.6573 83.6873H36.5971V82.7327H35.6573V83.6873ZM35.1039 84.2222V85.1544H35.6313V87.6913H35.0928V88.631H37.1022V87.6913H36.6119V84.2222H35.1039Z" fill="black"/>
<path fill-rule="evenodd" clip-rule="evenodd" d="M41.935 88.6321H40.0742V87.6924H40.5607V85.9207C40.5607 85.6941 40.4827 85.501 40.3267 85.3413C40.1707 85.1779 39.985 85.0961 39.7733 85.0961C39.4873 85.0961 39.2644 85.2187 39.0973 85.4564C38.971 85.6347 38.9116 85.8056 38.9116 85.9653V87.6924H39.3833V88.6321H37.5596V87.6924H38.0424V85.1556H37.541V84.2233H38.9116V84.7953C39.1827 84.3199 39.5616 84.0784 40.0556 84.0784C40.505 84.0784 40.8504 84.2456 41.0956 84.5761C41.3296 84.903 41.4484 85.345 41.4484 85.9096V87.6924H41.935V88.6321Z" fill="black"/>
<path fill-rule="evenodd" clip-rule="evenodd" d="M46.6044 87.1375C46.4559 87.6315 46.1884 88.0252 45.8022 88.3187C45.4307 88.6084 45.011 88.7495 44.5504 88.7495C43.945 88.7495 43.425 88.5229 42.9904 88.0661C42.5522 87.6129 42.333 87.0632 42.333 86.4244C42.333 85.8041 42.5484 85.2618 42.9756 84.7938C43.399 84.3295 43.8856 84.0955 44.4353 84.0955C44.6767 84.0955 44.8884 84.1438 45.0779 84.2367C45.245 84.3184 45.427 84.4558 45.6202 84.6489V84.2181H46.4373V85.7149H45.5422C45.4196 85.4995 45.2747 85.3435 45.1002 85.2432C44.9293 85.1467 44.7176 85.0984 44.465 85.0984C44.1196 85.0984 43.8336 85.2321 43.607 85.5032C43.3953 85.7595 43.2876 86.0752 43.2876 86.4429C43.2876 86.8032 43.4064 87.1189 43.6442 87.3789C43.8819 87.6427 44.1716 87.7727 44.5096 87.7727C44.9664 87.7727 45.3082 87.5609 45.5384 87.1375H46.6044Z" fill="black"/>
<path fill-rule="evenodd" clip-rule="evenodd" d="M50.4073 86.0667C50.3516 85.7472 50.2216 85.491 50.0247 85.3015C49.813 85.0972 49.5493 84.9932 49.2373 84.9932C48.8919 84.9932 48.6022 85.0972 48.3682 85.3015C48.1602 85.4872 48.0153 85.7435 47.9447 86.0667H50.4073ZM51.3285 86.4084C51.3285 86.5235 51.3247 86.6015 51.321 86.6498C51.3173 86.6981 51.3062 86.7575 51.2913 86.8318H47.9336C48.0005 87.1438 48.1602 87.3964 48.4165 87.597C48.6579 87.7901 48.929 87.8867 49.2262 87.8867C49.4527 87.8867 49.6385 87.8421 49.7796 87.7567C49.9022 87.6861 50.0322 87.5561 50.177 87.363H51.1502C50.983 87.805 50.7267 88.1504 50.3925 88.3955C50.0582 88.6407 49.6682 88.7632 49.2262 88.7632C48.591 88.7632 48.071 88.533 47.6587 88.0761C47.2613 87.6341 47.0645 87.0918 47.0645 86.4455C47.0645 85.8141 47.2762 85.2718 47.6996 84.815C48.1267 84.3581 48.6393 84.1315 49.2373 84.1315C49.8427 84.1315 50.3479 84.3692 50.7527 84.8484C51.1353 85.3015 51.3285 85.8215 51.3285 86.4084Z" fill="black"/>
<path fill-rule="evenodd" clip-rule="evenodd" d="M53.9639 82.7194V83.6516H54.7848V87.6334H54.1274V88.6028H56.4711V87.6519H55.8099V82.7194H53.9639Z" fill="black"/>
<path fill-rule="evenodd" clip-rule="evenodd" d="M56.9572 82.7287V84.6304H57.9564L57.9527 83.6758H59.5758L57.429 88.6307H58.5655L60.6418 83.713V82.7287H56.9572Z" fill="black"/>
<path fill-rule="evenodd" clip-rule="evenodd" d="M64.202 84.7882C64.202 84.48 64.098 84.2162 63.8863 83.9971C63.6746 83.778 63.422 83.6702 63.1286 83.6702C62.8463 83.6702 62.6086 83.778 62.408 83.9934C62.2112 84.2088 62.1109 84.4688 62.1109 84.7697C62.1109 85.0668 62.2149 85.3231 62.4192 85.5385C62.6234 85.7577 62.8686 85.8654 63.1509 85.8654C63.4369 85.8654 63.682 85.7577 63.89 85.5497C64.098 85.3417 64.202 85.0854 64.202 84.7882ZM65.2234 84.8514C65.2234 85.1114 65.1789 85.3677 65.086 85.6165C65.0192 85.806 64.9152 86.0065 64.774 86.2182L63.2066 88.6325H62.044L63.3403 86.6862C63.2103 86.7382 63.1397 86.7642 63.1174 86.7717C63.032 86.794 62.9503 86.8014 62.8723 86.8014C62.3374 86.8014 61.9066 86.6008 61.5723 86.1922C61.2603 85.806 61.1006 85.338 61.1006 84.7771C61.1006 84.1791 61.3049 83.6702 61.706 83.2431C62.1109 82.816 62.5974 82.6005 63.1657 82.6005C63.734 82.6005 64.2206 82.8234 64.6217 83.2654C65.0229 83.7074 65.2234 84.2385 65.2234 84.8514Z" fill="black"/>
<path fill-rule="evenodd" clip-rule="evenodd" d="M68.6531 86.9496V84.435C68.6531 84.2084 68.5565 84.0116 68.3671 83.8444C68.1776 83.6736 67.9548 83.5918 67.6948 83.5918C67.4422 83.5918 67.2156 83.681 67.0262 83.863C66.8442 84.0338 66.7551 84.2158 66.7551 84.4053V86.9236C66.7551 87.165 66.8516 87.373 67.0485 87.5364C67.2416 87.7036 67.4682 87.7853 67.7171 87.7853C67.9511 87.7853 68.1628 87.6961 68.3596 87.5141C68.5528 87.3321 68.6531 87.1427 68.6531 86.9496ZM69.7042 86.8716C69.7042 87.3693 69.4999 87.8076 69.0988 88.1901C68.6939 88.5727 68.2333 88.7658 67.7096 88.7658C67.1896 88.7658 66.7253 88.5727 66.3168 88.1938C65.9045 87.8113 65.7002 87.3804 65.7002 86.8976V84.3421C65.7002 83.9224 65.8971 83.5287 66.2945 83.1536C66.7105 82.7598 67.1748 82.563 67.6836 82.563C68.1999 82.563 68.6679 82.7598 69.0802 83.1461C69.4962 83.5324 69.7042 83.9521 69.7042 84.4053V86.8716Z" fill="black"/>
<path fill-rule="evenodd" clip-rule="evenodd" d="M0 72.4405H43.8806V71.9279H0V72.4405Z" fill="#E30613"/>
<path fill-rule="evenodd" clip-rule="evenodd" d="M57.1631 72.4405H101.047V71.9279H57.1631V72.4405Z" fill="#E30613"/>
<path fill-rule="evenodd" clip-rule="evenodd" d="M0.0185547 18.873H30.3494V18.3605H0.0185547V18.873Z" fill="#E30613"/>
<path fill-rule="evenodd" clip-rule="evenodd" d="M69.6768 18.873H101.033V18.3605H69.6768V18.873Z" fill="#E30613"/>
<path fill-rule="evenodd" clip-rule="evenodd" d="M36.9951 39.4665H40.9397V38.1294H36.9951V39.4665Z" fill="black"/>
<path fill-rule="evenodd" clip-rule="evenodd" d="M11.405 42.0854H10.3353L5.87815 37.8177L10.1533 33.888H11.145V31.9974H6.26443V33.888H7.33415L3.58272 37.4463V33.888H4.83815V31.9974H0.0541451V33.888H1.32815V42.0854H0.00585938V43.976H4.83815V42.0854H3.58272V38.308L7.50872 42.0854H6.30157V43.976H11.405V42.0854ZM22.195 33.5054C20.973 32.2909 19.5059 31.6817 17.7973 31.6817C16.0479 31.6817 14.5436 32.2909 13.2881 33.5092C12.0327 34.7274 11.4013 36.1946 11.4013 37.9069C11.4013 39.6489 12.0179 41.1457 13.251 42.3974C14.4804 43.6454 15.9661 44.2732 17.7119 44.2732C19.4576 44.2732 20.947 43.6417 22.1801 42.3826C23.4096 41.1197 24.0261 39.6154 24.0261 37.866C24.0261 36.176 23.417 34.72 22.195 33.5054ZM20.5236 40.7632C19.7473 41.5543 18.8113 41.9517 17.7119 41.9517C16.605 41.9517 15.6616 41.5506 14.889 40.7446C14.1127 39.9386 13.7264 38.9803 13.7264 37.866C13.7264 36.7852 14.1313 35.864 14.9373 35.11C15.7433 34.3523 16.7016 33.9734 17.8159 33.9734C18.9004 33.9734 19.8179 34.3597 20.5644 35.136C21.311 35.916 21.6824 36.8446 21.6824 37.9254C21.6824 39.0249 21.2961 39.972 20.5236 40.7632ZM36.4467 42.0669H35.1764V33.888H36.4467V31.9974H31.6739V33.888H32.9479L32.9367 36.7703H28.2121V33.888H29.5121V31.9974H24.7393V33.888H26.0133V42.0669H24.6799V43.9574H29.5121V42.0669H28.2679V39.1066H32.9479V42.0669H31.6144V43.9574H36.4467V42.0669ZM46.2524 42.0854H44.9784V33.888H46.2524V31.9974H41.3719V33.888H42.7424V42.0854H41.4201V43.976H46.2524V42.0854ZM64.159 31.9974H59.3676V33.888H60.6416L60.6304 39.9943L54.9327 31.9974H51.5564V33.888H52.8193V42.0854H51.497V43.976H56.359V42.0854H55.1333L55.1221 36.0534L60.7419 43.976H62.8664V33.888L64.159 33.8769V31.9974ZM75.365 33.5054C74.143 32.2909 72.6759 31.6817 70.9673 31.6817C69.2179 31.6817 67.7173 32.2909 66.4581 33.5092C65.2027 34.7274 64.575 36.1946 64.575 37.9069C64.575 39.6489 65.1916 41.1457 66.421 42.3974C67.6504 43.6454 69.1399 44.2732 70.8819 44.2732C72.6313 44.2732 74.1207 43.6417 75.3501 42.3826C76.5833 41.1197 77.1961 39.6154 77.1961 37.866C77.1961 36.176 76.587 34.72 75.365 33.5054ZM73.6936 40.7632C72.9173 41.5543 71.9813 41.9517 70.8819 41.9517C69.775 41.9517 68.8353 41.5506 68.059 40.7446C67.2864 39.9386 66.8964 38.9803 66.8964 37.866C66.8964 36.7852 67.3013 35.864 68.1073 35.11C68.9133 34.3523 69.8753 33.9734 70.9859 33.9734C72.0741 33.9734 72.9916 34.3597 73.7344 35.136C74.481 35.916 74.8561 36.8446 74.8561 37.9254C74.8561 39.0249 74.4661 39.972 73.6936 40.7632ZM88.5656 33.5054C87.3473 32.2909 85.8801 31.6817 84.1679 31.6817C82.4221 31.6817 80.9179 32.2909 79.6624 33.5092C78.4033 34.7274 77.7756 36.1946 77.7756 37.9069C77.7756 39.6489 78.3921 41.1457 79.6216 42.3974C80.8547 43.6454 82.3404 44.2732 84.0824 44.2732C85.8319 44.2732 87.3213 43.6417 88.5544 42.3826C89.7839 41.1197 90.4004 39.6154 90.4004 37.866C90.4004 36.176 89.7876 34.72 88.5656 33.5054ZM86.8941 40.7632C86.1179 41.5543 85.1819 41.9517 84.0824 41.9517C82.9756 41.9517 82.0359 41.5506 81.2633 40.7446C80.487 39.9386 80.1007 38.9803 80.1007 37.866C80.1007 36.7852 80.5019 35.864 81.3116 35.11C82.1176 34.3523 83.0759 33.9734 84.1901 33.9734C85.2747 33.9734 86.1921 34.3597 86.9387 35.136C87.6853 35.916 88.0567 36.8446 88.0567 37.9254C88.0567 39.0249 87.6704 39.972 86.8941 40.7632ZM101.038 42.0854H99.675L97.8253 39.7454C98.8021 39.504 99.5227 39.14 99.9833 38.6572C100.552 38.0629 100.834 37.1974 100.834 36.0572C100.834 35.0134 100.44 34.0812 99.6564 33.2603C98.8541 32.4172 97.8996 31.9974 96.8001 31.9974H90.861V33.888H92.1164V42.0854H90.783V43.976H95.3553V42.0854H94.3896V38.6497L98.141 43.976H101.038V42.0854ZM97.8327 37.8103C97.3796 38.2114 96.8187 38.412 96.1427 38.412H94.3896V34.0589H96.6479C97.179 34.0589 97.6321 34.2854 98.0147 34.7349C98.3713 35.162 98.5496 35.6337 98.5496 36.15C98.5496 36.8297 98.3081 37.3832 97.8327 37.8103Z" fill="black"/>
<path fill-rule="evenodd" clip-rule="evenodd" d="M46.9326 39.4739H50.8735V38.1294H46.9326V39.4739Z" fill="black"/>
</svg>
