<svg width="142" height="28" viewBox="0 0 142 28" fill="none" xmlns="http://www.w3.org/2000/svg">
<path fill-rule="evenodd" clip-rule="evenodd" d="M28.6982 6.37033L35.5216 22.4799C36.393 24.6805 36.0533 26.6153 33.0182 27.0694V27.3722H45.5315V27.0694C44.1653 26.8774 42.7253 25.8916 41.8133 23.7316L31.7665 0.00109863H31.3899L28.6982 6.37033Z" fill="black"/>
<path fill-rule="evenodd" clip-rule="evenodd" d="M53.1419 27.4855C59.3229 28.6228 65.009 24.4542 65.009 19.8277C65.009 10.5415 51.1702 11.7157 51.1702 4.81477C51.1702 2.00862 53.2564 0.531692 55.5309 0.531692C59.0164 0.531692 61.3315 3.03508 63.1887 8.07508H63.4915L63.1112 1.32923C60.6853 0.609231 58.3739 0 55.5309 0C50.3358 0 46.3555 3.64062 46.3555 7.54708C46.3555 16.5305 60.0022 14.8985 60.0022 22.1797C60.0022 25.4769 57.1222 27.8658 53.1789 27.1052L53.1419 27.4855Z" fill="black"/>
<path fill-rule="evenodd" clip-rule="evenodd" d="M77.6182 5.34684C76.7469 3.14991 77.0866 1.21514 80.1216 0.760991V0.458221H67.6084V0.760991C68.9746 0.949298 70.4146 1.93514 71.3266 4.09514L81.3696 27.8256H82.1302L91.0398 6.78684C92.8564 2.31545 94.4884 1.51791 96.2312 0.760991V0.458221H86.3764V0.760991C90.9992 1.48099 91.1506 4.66376 90.3161 6.74991L84.2533 21.0391L77.6182 5.34684Z" fill="black"/>
<path fill-rule="evenodd" clip-rule="evenodd" d="M102.552 22.33C102.552 24.7189 101.984 26.613 98.9521 27.0672V27.3736H111.462V27.0672C108.427 26.613 107.858 24.7189 107.858 22.33V5.49673C107.858 3.1115 108.427 1.21365 111.462 0.759495V0.456726H98.9521V0.759495C101.984 1.21365 102.552 3.1115 102.552 5.49673V22.33Z" fill="black"/>
<path fill-rule="evenodd" clip-rule="evenodd" d="M116.337 0.456726L115.957 9.13734H116.26C118.383 3.37734 121.643 1.06226 125.095 1.06226H126.233V22.33C126.233 24.7189 125.664 26.613 122.252 27.0672V27.3736H135.519V27.0672C132.107 26.613 131.539 24.7189 131.539 22.33V1.06226H132.676C136.124 1.06226 139.385 3.37734 141.508 9.13734H141.811L141.434 0.456726H116.337Z" fill="black"/>
<path fill-rule="evenodd" clip-rule="evenodd" d="M8.90954 26.7655V5.49786C8.90954 3.10893 9.47815 1.21478 13.2702 0.760624V0.457855H0V0.760624C3.03508 1.21478 3.60369 3.10893 3.60369 5.49786V22.3311C3.60369 24.72 3.03508 26.6142 0 27.0683V27.3748H22.2166L24.4911 17.5902L24.1883 17.5532C22.7077 22.1797 19.1446 26.7655 12.624 26.7655H8.90954Z" fill="black"/>
</svg>
