<svg width="134" height="61" viewBox="0 0 134 61" fill="none" xmlns="http://www.w3.org/2000/svg">
<path fill-rule="evenodd" clip-rule="evenodd" d="M93.5323 23.4281C85.2447 23.1505 78.4308 26.4506 72.7493 29.6424C72.1443 29.1484 71.4781 28.721 70.7676 28.374C74.2648 21.1827 81.6809 17.2859 85.8608 15.7538L93.5323 23.4281ZM72.4523 5.99233C69.5075 9.12033 67.2566 14.169 66.4073 18.9429C65.4359 14.0219 63.2959 9.01763 60.5732 5.88408L66.4572 0L72.4523 5.99233ZM50.2427 14.0913C56.8401 17.4691 60.7758 22.0764 63.4097 27.8023C64.1758 27.5691 64.9779 27.4248 65.8078 27.3776C65.0667 19.0511 62.9046 12.0513 57.4674 6.86384L50.2427 14.0913ZM39.3877 23.4281C47.6199 23.1505 54.4004 26.4034 60.0625 29.5814C60.6897 29.0735 61.3781 28.6433 62.1191 28.3019C58.6081 21.1577 51.228 17.2831 47.062 15.7538L39.3877 23.4281ZM82.6801 14.0913C76.0577 17.4802 72.1221 22.1042 69.4909 27.855C68.7304 27.6108 67.9366 27.4526 67.1123 27.3887C67.8506 19.0594 70.0154 12.0568 75.4527 6.86384L82.6801 14.0913Z" fill="black" fill-opacity="0.8"/>
<path fill-rule="evenodd" clip-rule="evenodd" d="M129.436 42.0684H127.701C127.64 42.0684 127.61 42.0379 127.61 41.974V39.3262C127.61 39.2651 127.64 39.2318 127.701 39.2318H129.436C130.402 39.2318 130.968 39.8036 130.968 40.6585C130.968 41.5105 130.402 42.0684 129.436 42.0684ZM127.454 47.7998C127.551 47.7998 127.61 47.7388 127.61 47.6444V44.1278C127.61 44.0668 127.64 44.0335 127.701 44.0335H129.575C131.853 44.0335 133.249 42.6402 133.249 40.6585C133.249 38.6434 131.867 37.2668 129.575 37.2668H125.489C125.392 37.2668 125.334 37.3278 125.334 37.4167V47.6444C125.334 47.7388 125.392 47.7998 125.489 47.7998H127.454ZM118.09 47.9719C120.446 47.9719 122.117 46.5481 122.117 43.928V37.4167C122.117 37.3278 122.059 37.2668 121.961 37.2668H119.996C119.905 37.2668 119.841 37.3278 119.841 37.4167V43.9891C119.841 45.2464 119.144 45.9569 118.09 45.9569C117.024 45.9569 116.327 45.2464 116.327 43.9891V37.4167C116.327 37.3278 116.258 37.2668 116.166 37.2668H114.201C114.11 37.2668 114.046 37.3278 114.046 37.4167V43.928C114.046 46.5481 115.722 47.9719 118.09 47.9719ZM106.979 45.9569C106.105 45.9569 105.547 45.5239 105.317 44.7967C105.195 44.422 105.147 43.9141 105.147 42.5347C105.147 41.1553 105.195 40.6446 105.317 40.2699C105.547 39.5427 106.105 39.1097 106.979 39.1097C107.842 39.1097 108.398 39.5427 108.633 40.2699C108.758 40.6446 108.806 41.1553 108.806 42.5347C108.806 43.9141 108.758 44.422 108.633 44.7967C108.398 45.5239 107.842 45.9569 106.979 45.9569ZM106.979 47.9719C108.822 47.9719 110.274 47.1198 110.821 45.4129C111.051 44.6885 111.115 44.1001 111.115 42.5347C111.115 40.9665 111.051 40.3781 110.821 39.6509C110.274 37.9468 108.822 37.0975 106.979 37.0975C105.131 37.0975 103.674 37.9468 103.132 39.6509C102.902 40.3781 102.838 40.9665 102.838 42.5347C102.838 44.1001 102.902 44.6885 103.132 45.4129C103.674 47.1198 105.131 47.9719 106.979 47.9719ZM96.4934 41.8491H94.6366C94.5727 41.8491 94.545 41.8214 94.545 41.7576V39.3262C94.545 39.2651 94.5727 39.2318 94.6366 39.2318H96.4934C97.3621 39.2318 97.9256 39.7425 97.9256 40.5363C97.9256 41.3412 97.3621 41.8491 96.4934 41.8491ZM100.293 47.7998C100.401 47.7998 100.448 47.7055 100.401 47.6167L98.3224 43.4617C99.4854 42.951 100.196 41.8797 100.196 40.5363C100.196 38.6129 98.7721 37.2668 96.6238 37.2668H92.4162C92.3273 37.2668 92.2663 37.3278 92.2663 37.4167V47.6444C92.2663 47.7388 92.3273 47.7998 92.4162 47.7998H94.3896C94.4811 47.7998 94.545 47.7388 94.545 47.6444V43.8808C94.545 43.8198 94.5727 43.7892 94.6366 43.7892H96.0493L97.8617 47.6444C97.9089 47.7554 97.9505 47.7998 98.0921 47.7998H100.293ZM81.3086 45.4129C81.847 47.1198 83.3042 47.9719 85.1804 47.9719C87.04 47.9719 88.4971 47.0255 89.0217 45.338C89.2077 44.7634 89.2826 43.8975 89.2826 42.9649V42.1017C89.2826 42.0074 89.2243 41.9463 89.1327 41.9463H85.5024C85.4108 41.9463 85.3525 42.0074 85.3525 42.1017V43.5866C85.3525 43.681 85.4108 43.7393 85.5024 43.7393H86.9318C86.99 43.7393 87.0233 43.7726 87.0233 43.8336C87.0233 44.2833 86.9789 44.6108 86.9012 44.8717C86.6847 45.5683 85.9992 45.9569 85.2082 45.9569C84.2978 45.9569 83.7233 45.5239 83.4929 44.7967C83.3652 44.422 83.3208 43.9141 83.3208 42.5347C83.3208 41.1553 83.3652 40.6585 83.4929 40.2838C83.7233 39.5594 84.2811 39.1097 85.1804 39.1097C86.0491 39.1097 86.5737 39.4816 86.99 40.1922C87.0233 40.2699 87.0983 40.3004 87.2065 40.2699L88.8663 39.576C88.9579 39.526 88.9718 39.4345 88.9301 39.3401C88.4305 38.0717 87.1455 37.0975 85.1804 37.0975C83.3042 37.0975 81.847 37.9468 81.3086 39.6509C81.0699 40.3781 81.0116 40.9665 81.0116 42.5347C81.0116 44.1001 81.0699 44.6885 81.3086 45.4129ZM66.8981 47.6444C66.8981 47.7388 66.962 47.7998 67.0536 47.7998H73.9146C74.009 47.7998 74.0728 47.7388 74.0728 47.6444V45.9264C74.0728 45.832 74.009 45.7737 73.9146 45.7737H69.2656C69.2046 45.7737 69.174 45.7404 69.174 45.6793V37.4167C69.174 37.3278 69.113 37.2668 69.0186 37.2668H67.0536C66.962 37.2668 66.8981 37.3278 66.8981 37.4167V47.6444ZM58.4467 43.8642L59.6402 40.1783H59.6873L60.8836 43.8642H58.4467ZM54.8829 47.6444C54.8552 47.7388 54.8829 47.7998 54.994 47.7998H57.0229C57.1339 47.7998 57.1949 47.7554 57.2255 47.6444L57.8139 45.8015H61.4998L62.1048 47.6444C62.1353 47.7554 62.1964 47.7998 62.3047 47.7998H64.3224C64.4307 47.7998 64.4585 47.7388 64.4307 47.6444L60.8669 37.4167C60.8336 37.3278 60.7726 37.2668 60.6671 37.2668H58.7131C58.6021 37.2668 58.5411 37.3278 58.5133 37.4167L54.8829 47.6444ZM50.1396 47.6444C50.1396 47.7388 50.2007 47.7998 50.295 47.7998H52.2601C52.3545 47.7998 52.4127 47.7388 52.4127 47.6444V37.4167C52.4127 37.3278 52.3545 37.2668 52.2601 37.2668H50.295C50.2007 37.2668 50.1396 37.3278 50.1396 37.4167V47.6444ZM43.4534 41.8491H41.5938C41.5327 41.8491 41.4994 41.8214 41.4994 41.7576V39.3262C41.4994 39.2651 41.5327 39.2318 41.5938 39.2318H43.4534C44.3249 39.2318 44.88 39.7425 44.88 40.5363C44.88 41.3412 44.3249 41.8491 43.4534 41.8491ZM47.2503 47.7998C47.3585 47.7998 47.4029 47.7055 47.3585 47.6167L45.2824 43.4617C46.4454 42.951 47.1587 41.8797 47.1587 40.5363C47.1587 38.6129 45.7293 37.2668 43.5755 37.2668H39.3817C39.2873 37.2668 39.2235 37.3278 39.2235 37.4167V47.6444C39.2235 47.7388 39.2873 47.7998 39.3817 47.7998H41.3496C41.4411 47.7998 41.4994 47.7388 41.4994 47.6444V43.8808C41.4994 43.8198 41.5327 43.7892 41.5938 43.7892H43.0065L44.8189 47.6444C44.8661 47.7554 44.9105 47.7998 45.0493 47.7998H47.2503ZM29.2261 47.6444C29.2261 47.7388 29.2872 47.7998 29.3788 47.7998H36.1371C36.2287 47.7998 36.2926 47.7388 36.2926 47.6444V45.9902C36.2926 45.8958 36.2287 45.832 36.1371 45.832H31.5992C31.5326 45.832 31.5048 45.8015 31.5048 45.7404V43.5533C31.5048 43.4922 31.5326 43.4617 31.5992 43.4617H35.3739C35.4682 43.4617 35.5321 43.4034 35.5321 43.3091V41.6632C35.5321 41.5716 35.4682 41.5105 35.3739 41.5105H31.5992C31.5326 41.5105 31.5048 41.48 31.5048 41.4162V39.3262C31.5048 39.2651 31.5326 39.2318 31.5992 39.2318H36.1371C36.2287 39.2318 36.2926 39.1736 36.2926 39.0792V37.4167C36.2926 37.3278 36.2287 37.2668 36.1371 37.2668H29.3788C29.2872 37.2668 29.2261 37.3278 29.2261 37.4167V47.6444ZM22.712 42.0684H20.9745C20.9162 42.0684 20.8829 42.0379 20.8829 41.974V39.3262C20.8829 39.2651 20.9162 39.2318 20.9745 39.2318H22.712C23.6723 39.2318 24.2469 39.8036 24.2469 40.6585C24.2469 41.5105 23.6723 42.0684 22.712 42.0684ZM20.7275 47.7998C20.8219 47.7998 20.8829 47.7388 20.8829 47.6444V44.1278C20.8829 44.0668 20.9162 44.0335 20.9745 44.0335H22.8508C25.1267 44.0335 26.5228 42.6402 26.5228 40.6585C26.5228 38.6434 25.1461 37.2668 22.8508 37.2668H18.7624C18.6681 37.2668 18.6042 37.3278 18.6042 37.4167V47.6444C18.6042 47.7388 18.6681 47.7998 18.7624 47.7998H20.7275ZM5.53992 47.6444C5.53992 47.7388 5.5982 47.7998 5.69257 47.7998H7.44669C7.53829 47.7998 7.59935 47.7388 7.59935 47.6444V41.7131H7.66041L9.61437 46.1595C9.67543 46.2955 9.76702 46.3621 9.90857 46.3621H10.9771C11.1159 46.3621 11.2075 46.2955 11.2713 46.1595L13.2225 41.7131H13.2836V47.6444C13.2836 47.7388 13.3474 47.7998 13.4418 47.7998H15.1904C15.2847 47.7998 15.3458 47.7388 15.3458 47.6444V37.4167C15.3458 37.3278 15.2847 37.2668 15.1904 37.2668H13.378C13.2558 37.2668 13.1809 37.3112 13.1309 37.4167L10.5081 43.4284H10.4498L7.78531 37.4167C7.7409 37.3112 7.66041 37.2668 7.53829 37.2668H5.69257C5.5982 37.2668 5.53992 37.3278 5.53992 37.4167V47.6444ZM0 47.6444C0 47.7388 0.0638367 47.7998 0.158204 47.7998H2.12604C2.22041 47.7998 2.27869 47.7388 2.27869 47.6444V37.4167C2.27869 37.3278 2.22041 37.2668 2.12604 37.2668H0.158204C0.0638367 37.2668 0 37.3278 0 37.4167V47.6444Z" fill="black" fill-opacity="0.8"/>
<path fill-rule="evenodd" clip-rule="evenodd" d="M108.398 60.792C108.462 60.792 108.498 60.7559 108.498 60.6921V58.1025L110.499 54.1419C110.524 54.0891 110.499 54.042 110.421 54.042H109.175C109.106 54.042 109.056 54.0725 109.025 54.1419L107.804 56.6065H107.771L106.555 54.1419C106.522 54.0725 106.475 54.042 106.405 54.042H105.115C105.042 54.042 105.023 54.0891 105.042 54.1419L107.038 58.1025V60.6921C107.038 60.7559 107.08 60.792 107.138 60.792H108.398ZM100.624 56.984H99.4303C99.3915 56.984 99.372 56.9618 99.372 56.9202V55.3631C99.372 55.3215 99.3915 55.3048 99.4303 55.3048H100.624C101.182 55.3048 101.537 55.6323 101.537 56.1402C101.537 56.6537 101.182 56.984 100.624 56.984ZM103.052 60.792C103.125 60.792 103.152 60.7365 103.125 60.6727L101.792 58.0109C102.536 57.6834 102.997 57.0007 102.997 56.1402C102.997 54.9079 102.081 54.042 100.699 54.042H98.0092C97.951 54.042 97.9149 54.0808 97.9149 54.1419V60.6921C97.9149 60.7559 97.951 60.792 98.0092 60.792H99.2749C99.3332 60.792 99.372 60.7559 99.372 60.6921V58.2829C99.372 58.2413 99.3914 58.2219 99.4303 58.2219H100.335L101.498 60.6921C101.523 60.7642 101.556 60.792 101.648 60.792H103.052ZM91.5451 58.2718L92.3083 55.9071H92.3361L93.1021 58.2718H91.5451ZM89.2608 60.6921C89.2414 60.7559 89.2608 60.792 89.3275 60.792H90.6319C90.7041 60.792 90.7402 60.7642 90.7624 60.6921L91.1371 59.5125H93.499L93.8848 60.6921C93.907 60.7642 93.9431 60.792 94.0153 60.792H95.3114C95.3753 60.792 95.3947 60.7559 95.3753 60.6921L93.091 54.1419C93.0716 54.0808 93.0328 54.042 92.9634 54.042H91.7088C91.645 54.042 91.6034 54.0808 91.5867 54.1419L89.2608 60.6921ZM85.3946 60.792C85.4528 60.792 85.4972 60.7559 85.5167 60.6921L87.6594 54.153C87.676 54.0808 87.6399 54.042 87.5789 54.042H86.2994C86.23 54.042 86.1911 54.0725 86.1717 54.1419L84.8589 58.5688H84.8311L83.4822 54.1419C83.46 54.0725 83.4239 54.042 83.349 54.042H82.0612C81.9862 54.042 81.9501 54.0808 81.9723 54.153L84.115 60.6921C84.1345 60.7559 84.1733 60.792 84.2427 60.792H85.3946ZM71.8778 60.792C71.9333 60.792 71.9777 60.7559 71.9777 60.6921V58.1025L73.9706 54.1419C74.0011 54.0891 73.9706 54.042 73.9039 54.042H72.6522C72.58 54.042 72.5328 54.0725 72.5023 54.1419L71.2811 56.6065H71.2506L70.0266 54.1419C69.9988 54.0725 69.9516 54.042 69.8795 54.042H68.5888C68.5222 54.042 68.5 54.0891 68.5222 54.1419L70.515 58.1025V60.6921C70.515 60.7559 70.5539 60.792 70.615 60.792H71.8778ZM64.309 60.792C64.3645 60.792 64.4089 60.7559 64.4256 60.6921L66.5683 54.153C66.5932 54.0808 66.5516 54.042 66.4933 54.042H65.211C65.1444 54.042 65.1 54.0725 65.0834 54.1419L63.7706 58.5688H63.74L62.3911 54.1419C62.3717 54.0725 62.3328 54.042 62.2635 54.042H60.9701C60.9007 54.042 60.8646 54.0808 60.8812 54.153L63.0239 60.6921C63.0461 60.7559 63.085 60.792 63.1572 60.792H64.309ZM56.0269 59.6096C55.469 59.6096 55.111 59.3349 54.9611 58.8658C54.8834 58.6299 54.8501 58.3024 54.8501 57.417C54.8501 56.5344 54.8834 56.2096 54.9611 55.9682C55.111 55.5019 55.469 55.2243 56.0269 55.2243C56.5764 55.2243 56.9372 55.5019 57.0871 55.9682C57.1648 56.2096 57.1954 56.5344 57.1954 57.417C57.1954 58.3024 57.1648 58.6299 57.0871 58.8658C56.9372 59.3349 56.5764 59.6096 56.0269 59.6096ZM56.0269 60.903C57.2037 60.903 58.139 60.359 58.486 59.2627C58.6359 58.7964 58.6747 58.4217 58.6747 57.417C58.6747 56.415 58.6359 56.0403 58.486 55.5713C58.139 54.4805 57.2037 53.9337 56.0269 53.9337C54.8417 53.9337 53.9092 54.4805 53.5622 55.5713C53.4123 56.0403 53.3735 56.415 53.3735 57.417C53.3735 58.4217 53.4123 58.7964 53.5622 59.2627C53.9092 60.359 54.8417 60.903 56.0269 60.903ZM46.579 60.6921C46.579 60.7559 46.6179 60.792 46.679 60.792H51.0754C51.1364 60.792 51.1753 60.7559 51.1753 60.6921V59.593C51.1753 59.5319 51.1364 59.4931 51.0754 59.4931H48.0972C48.0612 59.4931 48.0362 59.4736 48.0362 59.4348V54.1419C48.0362 54.0808 47.9973 54.042 47.9363 54.042H46.679C46.6179 54.042 46.579 54.0808 46.579 54.1419V60.6921ZM41.3444 56.984H40.151C40.1121 56.984 40.0927 56.9618 40.0927 56.9202V55.3631C40.0927 55.3215 40.1121 55.3048 40.151 55.3048H41.3444C41.9023 55.3048 42.2548 55.6323 42.2548 56.1402C42.2548 56.6537 41.9023 56.984 41.3444 56.984ZM43.7758 60.792C43.8479 60.792 43.8757 60.7365 43.8479 60.6727L42.5157 58.0109C43.2595 57.6834 43.7175 57.0007 43.7175 56.1402C43.7175 54.9079 42.8016 54.042 41.4249 54.042H38.7327C38.6744 54.042 38.6328 54.0808 38.6328 54.1419V60.6921C38.6328 60.7559 38.6744 60.792 38.7327 60.792H39.9955C40.051 60.792 40.0927 60.7559 40.0927 60.6921V58.2829C40.0927 58.2413 40.1121 58.2219 40.151 58.2219H41.0558L42.2187 60.6921C42.2465 60.7642 42.2798 60.792 42.3658 60.792H43.7758ZM32.2657 58.2718L33.0318 55.9071H33.0623L33.8256 58.2718H32.2657ZM29.9843 60.6921C29.9621 60.7559 29.9843 60.792 30.0509 60.792H31.3554C31.422 60.792 31.4608 60.7642 31.483 60.6921L31.8577 59.5125H34.2225L34.611 60.6921C34.6305 60.7642 34.6666 60.792 34.7359 60.792H36.0266C36.0987 60.792 36.1154 60.7559 36.0987 60.6921L33.8145 54.1419C33.7923 54.0808 33.7562 54.042 33.6868 54.042H32.435C32.3629 54.042 32.3268 54.0808 32.3074 54.1419L29.9843 60.6921ZM22.335 60.6921C22.335 60.7559 22.371 60.792 22.4349 60.792H23.695C23.7532 60.792 23.7949 60.7559 23.7949 60.6921V58.974L24.6747 57.8638L26.2068 60.7032C26.2484 60.7726 26.2734 60.792 26.3567 60.792H27.8138C27.886 60.792 27.9137 60.7448 27.8749 60.6727L25.6406 56.7342L27.6861 54.1696C27.7361 54.1113 27.7056 54.042 27.6445 54.042H26.2068C26.1263 54.042 26.0875 54.0614 26.0375 54.1336L23.7949 57.0562V54.1419C23.7949 54.0808 23.7532 54.042 23.695 54.042H22.4349C22.371 54.042 22.335 54.0808 22.335 54.1419V60.6921Z" fill="black" fill-opacity="0.8"/>
</svg>
