<svg width="214" height="40" viewBox="0 0 214 40" fill="none" xmlns="http://www.w3.org/2000/svg">
<path d="M73.3138 10.8863H70.2863C70.2224 10.8851 70.1606 10.9093 70.1146 10.9535C70.0685 10.9976 70.0419 11.0582 70.0406 11.122V17.4675C70.0433 17.542 70.0307 17.6163 70.0037 17.6858C69.9767 17.7554 69.9357 17.8187 69.8833 17.8719C69.831 17.9251 69.7683 17.9671 69.6991 17.9953C69.6299 18.0236 69.5557 18.0374 69.481 18.0361H65.6474C65.5726 18.0375 65.4983 18.0238 65.429 17.9956C65.3598 17.9674 65.297 17.9254 65.2445 17.8722C65.1921 17.8189 65.1511 17.7556 65.124 17.686C65.0969 17.6164 65.0844 17.5421 65.0871 17.4675V11.122C65.0839 11.0589 65.0567 10.9993 65.011 10.9555C64.9654 10.9117 64.9047 10.887 64.8414 10.8863H61.816C61.7522 10.8853 61.6906 10.9096 61.6446 10.9537C61.5985 10.9978 61.5719 11.0583 61.5703 11.122V28.7981C61.5719 28.8618 61.5985 28.9223 61.6446 28.9664C61.6906 29.0105 61.7522 29.0347 61.816 29.0337H64.735C64.9022 29.0337 65.0893 28.8962 65.0893 28.7981V22.0969C65.0867 22.0228 65.0994 21.949 65.1267 21.88C65.154 21.811 65.1951 21.7483 65.2477 21.6959C65.3002 21.6435 65.363 21.6024 65.4322 21.5752C65.5013 21.548 65.5753 21.5353 65.6496 21.5378H69.4832C69.5574 21.5353 69.6314 21.548 69.7005 21.5752C69.7696 21.6024 69.8323 21.6435 69.8848 21.6959C69.9373 21.7484 69.9784 21.811 70.0056 21.88C70.0328 21.949 70.0454 22.0228 70.0428 22.0969V28.7981C70.0441 28.8618 70.0707 28.9224 70.1168 28.9666C70.1628 29.0108 70.2246 29.0349 70.2885 29.0337H73.316C73.3799 29.0349 73.4416 29.0108 73.4877 28.9666C73.5337 28.9224 73.5603 28.8618 73.5617 28.7981V11.122C73.561 11.0902 73.5541 11.0589 73.5412 11.0299C73.5284 11.0008 73.5099 10.9746 73.4869 10.9527C73.4638 10.9308 73.4367 10.9136 73.407 10.9022C73.3773 10.8909 73.3456 10.8854 73.3138 10.8863Z" fill="white"/>
<path d="M91.193 12.7796C90.1413 11.2889 88.3914 10.511 86.1412 10.511C83.8677 10.511 82.1207 11.286 81.0689 12.7664C79.9094 14.2871 79.6754 16.7387 79.6754 19.9557C79.6754 23.1728 79.9116 25.6243 81.0689 27.145C82.1207 28.6255 83.8699 29.41 86.1412 29.41C88.3914 29.41 90.1318 28.6255 91.1835 27.145C92.343 25.6243 92.577 23.1728 92.577 19.9557C92.577 16.7387 92.343 14.2901 91.193 12.7796ZM88.5292 24.5288C88.0892 25.4414 87.2824 25.9024 86.1412 25.9024C84.981 25.9024 84.1757 25.4414 83.7327 24.5288L83.7232 24.5193C83.3007 23.5577 83.3007 21.9689 83.3007 19.9587C83.3007 17.9484 83.3007 16.3596 83.7232 15.398C84.1754 14.4759 84.9822 14.0149 86.1434 14.0149C87.2832 14.0149 88.0892 14.4759 88.5315 15.3885C88.984 16.3596 88.984 17.9498 88.984 19.9587C88.984 21.9675 88.9818 23.5577 88.5292 24.5288Z" fill="white"/>
<path d="M111.146 28.5305L106.399 20.2434C106.173 19.8212 106.123 19.5468 106.409 19.0857L111.019 11.3285C111.052 11.2781 111.071 11.2204 111.076 11.1606C111.082 11.1007 111.072 11.0405 111.048 10.9853C111.008 10.9165 110.93 10.8872 110.812 10.8872H107.598C107.333 10.8872 107.283 10.956 107.205 11.0446L103.264 18.0663C103.215 18.1711 103.132 18.2559 103.028 18.3061C102.924 18.3563 102.806 18.3688 102.694 18.3415C102.572 18.3194 102.462 18.2552 102.382 18.16C102.303 18.0648 102.26 17.9448 102.261 17.8211V11.1222C102.258 11.059 102.231 10.9995 102.185 10.9557C102.139 10.9119 102.079 10.8872 102.015 10.8865H98.9878C98.9239 10.8853 98.8622 10.9095 98.8161 10.9537C98.7701 10.9978 98.7434 11.0584 98.7421 11.1222V28.7983C98.7434 28.862 98.7701 28.9226 98.8161 28.9668C98.8622 29.011 98.9239 29.0351 98.9878 29.0339H102.015C102.079 29.0349 102.141 29.0107 102.187 28.9666C102.233 28.9224 102.259 28.862 102.261 28.7983V21.9398C102.261 21.8202 102.302 21.7042 102.377 21.611C102.452 21.5178 102.557 21.4531 102.674 21.4275C102.716 21.4196 102.759 21.4164 102.802 21.418C102.899 21.4153 102.996 21.4406 103.079 21.4911C103.163 21.5416 103.23 21.615 103.273 21.7027L107.215 28.7859C107.303 28.9425 107.402 29.031 107.647 29.031H110.948C111.066 29.031 111.144 29.0017 111.183 28.933C111.248 28.8444 111.225 28.6878 111.146 28.5305Z" fill="white"/>
<path d="M126.509 25.6076H120.602C120.527 25.6102 120.453 25.5975 120.384 25.5703C120.315 25.5431 120.253 25.5021 120.2 25.4497C120.148 25.3974 120.107 25.3348 120.079 25.2659C120.052 25.197 120.039 25.1232 120.042 25.0492V22.0488C120.039 21.9747 120.052 21.9009 120.079 21.8319C120.106 21.7629 120.147 21.7003 120.2 21.6478C120.252 21.5954 120.315 21.5543 120.384 21.5271C120.453 21.4999 120.527 21.4872 120.602 21.4897H126.185C126.249 21.4882 126.309 21.4615 126.353 21.4156C126.398 21.3697 126.422 21.3082 126.42 21.2446V18.3012C126.421 18.2697 126.416 18.2383 126.404 18.209C126.393 18.1796 126.376 18.1527 126.354 18.13C126.332 18.1072 126.306 18.089 126.277 18.0763C126.248 18.0636 126.217 18.0567 126.185 18.0561H120.602C120.527 18.0585 120.453 18.0457 120.384 18.0185C120.315 17.9912 120.253 17.9501 120.2 17.8977C120.148 17.8453 120.107 17.7827 120.079 17.7137C120.052 17.6448 120.039 17.571 120.042 17.497V14.8785C120.038 14.8037 120.05 14.729 120.077 14.659C120.104 14.589 120.144 14.5252 120.197 14.4718C120.25 14.4183 120.313 14.3762 120.382 14.3483C120.452 14.3203 120.527 14.307 120.602 14.3092H126.401C126.464 14.3084 126.523 14.2834 126.567 14.2395C126.611 14.1957 126.636 14.1363 126.637 14.0743V11.1222C126.636 11.06 126.611 11.0006 126.567 10.9566C126.523 10.9126 126.464 10.8875 126.401 10.8865H116.769C116.705 10.8853 116.643 10.9095 116.597 10.9537C116.551 10.9978 116.524 11.0584 116.523 11.1222V28.7983C116.524 28.862 116.551 28.9226 116.597 28.9668C116.643 29.011 116.705 29.0351 116.769 29.0339H126.509C126.572 29.033 126.631 29.0078 126.675 28.9638C126.719 28.9198 126.744 28.8604 126.745 28.7983V25.8564C126.746 25.8246 126.74 25.7929 126.729 25.7632C126.718 25.7334 126.701 25.7062 126.679 25.683C126.657 25.6599 126.631 25.6413 126.602 25.6284C126.573 25.6154 126.541 25.6084 126.509 25.6076Z" fill="white"/>
<path d="M141.852 10.8865H138.796C138.734 10.8872 138.674 10.9123 138.63 10.9563C138.586 11.0004 138.561 11.0599 138.56 11.1221V23.8424C138.56 25.0785 137.753 25.9025 136.574 25.9025C135.365 25.9025 134.589 25.0975 134.589 23.8424V22.7733C134.589 22.741 134.583 22.709 134.57 22.6791C134.558 22.6492 134.54 22.6221 134.517 22.5993C134.494 22.5764 134.467 22.5584 134.437 22.5462C134.407 22.534 134.375 22.5278 134.343 22.5281H131.178C131.119 22.5384 130.958 22.6554 130.958 22.7733V23.8132C130.958 27.1063 133.268 29.413 136.57 29.413C139.981 29.413 142.094 27.2651 142.094 23.8132V11.1221C142.093 11.059 142.067 10.999 142.022 10.9549C141.976 10.9108 141.916 10.8863 141.852 10.8865Z" fill="white"/>
<path d="M159.447 20.0963C159.379 20.0552 159.32 19.9996 159.276 19.9334C159.232 19.8673 159.203 19.7922 159.191 19.7136C159.184 19.6079 159.201 19.5021 159.24 19.4037C159.279 19.3054 159.34 19.217 159.418 19.145C160.312 18.3012 160.774 17.1339 160.774 15.7706C160.774 13.0343 158.444 10.8967 155.466 10.8967H149.48C149.448 10.8974 149.417 10.9043 149.388 10.9169C149.359 10.9296 149.333 10.9479 149.311 10.9706C149.289 10.9934 149.272 11.0202 149.261 11.0496C149.249 11.079 149.244 11.1104 149.244 11.1419V28.8048C149.245 28.8681 149.269 28.9288 149.313 28.9746C149.357 29.0203 149.417 29.0476 149.48 29.0507H155.466C158.788 29.0507 161.019 26.8729 161.019 23.6353C161.019 22.1951 160.43 20.8706 159.447 20.0963ZM152.645 14.5346C152.644 14.4599 152.658 14.3858 152.686 14.3167C152.714 14.2476 152.756 14.1849 152.81 14.1326C152.863 14.0803 152.926 14.0393 152.996 14.0123C153.066 13.9853 153.14 13.9728 153.215 13.9755H155.253C156.334 13.9755 157.209 14.9363 157.209 16.1131C157.209 17.2708 156.334 18.2024 155.253 18.2024H153.219C153.144 18.2051 153.07 18.1925 153 18.1655C152.93 18.1385 152.867 18.0976 152.813 18.0452C152.76 17.9929 152.718 17.9303 152.69 17.8612C152.661 17.792 152.648 17.7179 152.649 17.6433L152.645 14.5346ZM155.201 25.7547H153.215C153.14 25.757 153.064 25.7439 152.994 25.7161C152.924 25.6883 152.86 25.6464 152.807 25.5931C152.753 25.5397 152.711 25.476 152.684 25.4059C152.656 25.3357 152.643 25.2607 152.645 25.1853V21.7341C152.644 21.6595 152.658 21.5853 152.686 21.5162C152.714 21.4471 152.756 21.3845 152.81 21.3321C152.863 21.2798 152.926 21.2389 152.996 21.2119C153.066 21.1848 153.14 21.1723 153.215 21.175H155.201C156.429 21.175 157.393 22.1754 157.393 23.4502C157.393 24.7645 156.449 25.7554 155.201 25.7554V25.7547Z" fill="white"/>
<path d="M180.01 28.6878L175.023 11.0826C174.973 10.9158 174.876 10.8967 174.796 10.8967H170.75C170.662 10.8967 170.574 10.9158 170.524 11.0929L165.482 28.6878C165.466 28.7356 165.463 28.7863 165.472 28.8357C165.48 28.8851 165.5 28.9317 165.531 28.9717C165.551 28.999 165.578 29.0207 165.609 29.0345C165.64 29.0484 165.674 29.054 165.708 29.0507H169.03C169.119 29.0507 169.207 29.0207 169.256 28.8539L170.063 25.9215C170.093 25.7942 170.191 25.4019 170.673 25.4019H174.742C175.273 25.4019 175.38 25.863 175.41 26.0101L176.265 28.8539C176.314 29.0207 176.403 29.0507 176.492 29.0507H179.813C179.841 29.0517 179.869 29.0459 179.895 29.0339C179.92 29.022 179.943 29.0042 179.96 28.9819C179.991 28.9402 180.011 28.8918 180.02 28.8407C180.028 28.7897 180.025 28.7373 180.01 28.6878ZM174.406 21.8819C174.353 21.9462 174.285 21.9979 174.209 22.0335C174.133 22.069 174.05 22.0875 173.966 22.0876H171.529C171.446 22.0887 171.363 22.0707 171.289 22.0351C171.214 21.9994 171.148 21.947 171.097 21.8819C171.044 21.809 171.007 21.7253 170.99 21.6367C170.973 21.5482 170.976 21.457 170.998 21.3697L172.237 16.1811C172.325 15.9162 172.53 15.7596 172.767 15.7794C172.879 15.7857 172.986 15.8284 173.071 15.901C173.156 15.9735 173.216 16.0719 173.24 16.1811L174.497 21.3697C174.523 21.4561 174.529 21.5474 174.513 21.6362C174.497 21.725 174.461 21.8089 174.406 21.8812V21.8819Z" fill="white"/>
<path d="M195.47 25.5395H189.623C189.549 25.5404 189.476 25.5266 189.407 25.4988C189.339 25.471 189.277 25.4298 189.225 25.3777C189.172 25.3256 189.131 25.2637 189.103 25.1954C189.075 25.1272 189.061 25.0541 189.062 24.9804V11.1419C189.063 11.1096 189.056 11.0776 189.044 11.0477C189.032 11.0179 189.014 10.9907 188.991 10.9679C188.968 10.9451 188.941 10.927 188.911 10.9148C188.881 10.9026 188.849 10.8965 188.817 10.8967H185.789C185.757 10.8964 185.725 10.9024 185.695 10.9146C185.665 10.9268 185.637 10.9448 185.614 10.9677C185.592 10.9905 185.574 11.0177 185.561 11.0476C185.549 11.0775 185.543 11.1096 185.543 11.1419V28.8049C185.543 28.8372 185.549 28.8693 185.561 28.8993C185.574 28.9292 185.592 28.9564 185.614 28.9793C185.637 29.0023 185.665 29.0204 185.695 29.0326C185.725 29.0449 185.757 29.0511 185.789 29.0508H195.47C195.535 29.0498 195.597 29.0236 195.643 28.9776C195.689 28.9317 195.715 28.8697 195.716 28.8049V25.7847C195.716 25.7524 195.71 25.7203 195.698 25.6904C195.686 25.6605 195.668 25.6333 195.645 25.6105C195.622 25.5876 195.595 25.5696 195.565 25.5574C195.535 25.5452 195.503 25.5391 195.47 25.5395Z" fill="white"/>
<path d="M200.513 15.4177L199.285 15.0518C198.646 14.885 197.909 14.5615 197.909 13.6614C197.909 12.9259 198.518 12.4063 199.393 12.4063C200.268 12.4063 200.859 12.9062 200.859 13.6614V13.769L202.688 13.7887L202.707 13.6614C202.707 11.9153 201.38 10.7488 199.395 10.7488C197.439 10.7488 196.021 12.0236 196.021 13.7887C196.021 15.2604 196.847 16.3193 198.295 16.6918L199.632 17.0577C200.536 17.3029 200.968 17.7837 200.968 18.5213C200.968 19.3454 200.28 19.9535 199.317 19.9535C198.354 19.9535 197.656 19.3256 197.656 18.4723V18.315L195.758 18.2959L195.739 18.394C195.739 20.2865 197.223 21.614 199.356 21.614C201.459 21.614 202.876 20.3099 202.876 18.3677C202.872 16.8499 202.095 15.8788 200.513 15.4177Z" fill="white"/>
<path d="M213.979 21.1874L211.197 16.3231C211.05 16.0487 211.001 15.8328 211.197 15.5181L213.9 10.967C213.93 10.9282 213.93 10.8989 213.92 10.8887H212.004C211.905 10.8887 211.895 10.8989 211.876 10.9377L209.566 15.0475C209.497 15.2144 209.3 15.3022 209.094 15.2634C208.995 15.2453 208.905 15.1932 208.841 15.1161C208.776 15.039 208.74 14.9417 208.74 14.8412V10.9062L206.942 10.8865L206.922 21.2826C206.922 21.2877 206.924 21.2927 206.928 21.2963C206.931 21.3 206.936 21.3021 206.942 21.3023H208.719L208.738 17.2613C208.738 17.1622 208.772 17.0661 208.835 16.9893C208.898 16.9125 208.985 16.8597 209.082 16.8397C209.115 16.8319 209.148 16.8287 209.181 16.8302C209.261 16.8284 209.339 16.8495 209.407 16.8912C209.475 16.9329 209.53 16.9933 209.564 17.0651L211.884 21.224C211.913 21.2826 211.933 21.3023 212.031 21.3023H213.968C214.009 21.3023 214.009 21.2533 213.979 21.1874Z" fill="white"/>
<path d="M23.3227 36.2956C23.3469 39.9788 20.9266 40.9953 18.1741 38.9843C15.9371 37.3501 10.1329 32.9425 10.0793 32.8963C8.99914 32.0444 8.22231 30.8682 7.8637 29.5417L0.00880328 0.311782C-0.00102708 0.27601 -0.00244121 0.238454 0.00467155 0.202046C0.0117843 0.165639 0.0272311 0.131364 0.0498073 0.101895C0.0723835 0.0724257 0.101479 0.0485599 0.134822 0.0321597C0.168166 0.0157595 0.204855 0.00726856 0.242029 0.0073488L4.23768 3.02577e-05C4.32574 -0.00105573 4.41166 0.0271187 4.4819 0.0801155C4.55214 0.133112 4.60272 0.20792 4.62566 0.292754C5.18746 2.42305 9.0643 16.8214 10.3199 21.3967C11.2117 24.6488 13.9298 26.2442 17.1451 28.1176C18.7219 29.0309 20.5775 30.0203 21.8837 30.747C23.4415 31.615 23.2442 31.7767 23.3146 33.4108C23.3117 33.4123 23.3168 35.413 23.3227 36.2956Z" fill="white"/>
<path d="M32.4133 36.2956C32.3891 39.9788 34.8094 40.9953 37.5619 38.9843C39.7989 37.3502 45.6024 32.9425 45.6567 32.8964C46.7369 32.0444 47.5137 30.8682 47.8723 29.5417L55.7287 0.311787C55.7385 0.276015 55.7399 0.238459 55.7328 0.202051C55.7257 0.165644 55.7102 0.131369 55.6877 0.1019C55.6651 0.0724309 55.636 0.0485651 55.6026 0.0321649C55.5693 0.0157647 55.5326 0.0072737 55.4954 0.00735394L51.4991 3.53962e-05C51.4111 -0.00114054 51.3252 0.0270138 51.2551 0.0800369C51.1849 0.13306 51.1345 0.20792 51.1118 0.292759C50.55 2.42306 46.6732 16.8214 45.4176 21.3967C44.525 24.6489 41.8077 26.2442 38.5924 28.1176C37.0148 29.0309 35.16 30.0203 33.8538 30.747C32.296 31.615 32.4933 31.7767 32.4229 33.4108C32.4214 33.4123 32.4192 35.413 32.4133 36.2956Z" fill="white"/>
<path d="M27.8405 24.0641C32.3974 24.0641 36.0914 20.3781 36.0914 15.8313C36.0914 11.2844 32.3974 7.59839 27.8405 7.59839C23.2836 7.59839 19.5896 11.2844 19.5896 15.8313C19.5896 20.3781 23.2836 24.0641 27.8405 24.0641Z" fill="#FA5F00"/>
</svg>
