<svg width="220" height="177" viewBox="0 0 220 177" fill="none" xmlns="http://www.w3.org/2000/svg">
<path d="M92.0577 160.61C92.1561 176.905 82.5999 181.406 71.7353 172.507C62.9058 165.276 39.9982 145.772 39.7869 145.568C35.5222 141.799 32.4557 136.594 31.0413 130.724L0.0337968 1.37974C-0.00492042 1.22128 -0.0104551 1.05496 0.0176206 0.893711C0.0456963 0.732464 0.106625 0.58063 0.195678 0.450002C0.284731 0.319374 0.399509 0.213468 0.531092 0.140518C0.662676 0.0675673 0.807522 0.0295364 0.954381 0.0293745L16.7288 0.000231068C17.0764 -0.00610549 17.4158 0.118044 17.6929 0.352848C17.97 0.587652 18.1687 0.919561 18.2573 1.29555C20.4749 10.7254 35.7774 74.4388 40.7335 94.6814C44.2567 109.072 54.9824 116.135 67.6766 124.422C73.9007 128.466 81.2248 132.841 86.3807 136.06C92.5295 139.898 91.7508 140.617 92.0287 147.848C92.0287 147.851 92.0345 156.701 92.0577 160.61Z" fill="#FFFFFF"/>
<path d="M127.942 160.61C127.844 176.905 137.4 181.406 148.265 172.507C157.094 165.276 180.002 145.772 180.213 145.568C184.478 141.799 187.544 136.594 188.958 130.724L219.966 1.37974C220.005 1.22128 220.01 1.05496 219.982 0.893711C219.954 0.732464 219.893 0.58063 219.804 0.450002C219.715 0.319374 219.6 0.213468 219.469 0.140518C219.337 0.0675673 219.192 0.0295364 219.045 0.0293745L203.271 0.000231068C202.923 -0.00610549 202.584 0.118044 202.307 0.352848C202.03 0.587652 201.831 0.919561 201.742 1.29555C199.525 10.7254 184.222 74.4388 179.266 94.6814C175.743 109.072 165.017 116.135 152.323 124.422C146.099 128.466 138.775 132.841 133.619 136.06C127.47 139.898 128.249 140.617 127.971 147.848C127.971 147.851 127.965 156.701 127.942 160.61Z" fill="#FFFFFF"/>
<path d="M109.892 106.482C127.878 106.482 142.46 90.171 142.46 70.0508C142.46 49.9307 127.878 33.6201 109.892 33.6201C91.9049 33.6201 77.3237 49.9307 77.3237 70.0508C77.3237 90.171 91.9049 106.482 109.892 106.482Z" fill="#FFFFFF"/>
</svg>
