<svg width="77" height="16" viewBox="0 0 77 16" fill="none" xmlns="http://www.w3.org/2000/svg">
<path fill-rule="evenodd" clip-rule="evenodd" d="M15.5826 3.66301L19.2876 12.9262C19.7607 14.1915 19.5763 15.304 17.9283 15.5652V15.7393H24.7227V15.5652C23.9809 15.4548 23.199 14.8879 22.7039 13.6459L17.2487 0.000637054H17.0442L15.5826 3.66301Z" fill="white"/>
<path fill-rule="evenodd" clip-rule="evenodd" d="M28.8552 15.8045C32.2113 16.4584 35.2988 14.0614 35.2988 11.4011C35.2988 6.06149 27.7846 6.73664 27.7846 2.76854C27.7846 1.15497 28.9173 0.305728 30.1523 0.305728C32.0449 0.305728 33.3019 1.7452 34.3104 4.64325H34.4748L34.2683 0.764321C32.9511 0.350314 31.6961 0 30.1523 0C27.3315 0 25.1703 2.09339 25.1703 4.33965C25.1703 9.50518 32.5802 8.56677 32.5802 12.7535C32.5802 14.6495 31.0164 16.0231 28.8752 15.5858L28.8552 15.8045Z" fill="white"/>
<path fill-rule="evenodd" clip-rule="evenodd" d="M42.145 3.07448C41.6718 1.81123 41.8563 0.698716 43.5043 0.437573V0.263477H36.7098V0.437573C37.4516 0.545852 38.2335 1.11272 38.7287 2.35474L44.1819 16H44.5949L49.4326 3.9025C50.419 1.3314 51.3051 0.872811 52.2514 0.437573V0.263477H46.9005V0.437573C49.4105 0.85158 49.4927 2.6817 49.0396 3.88126L45.7477 12.0977L42.145 3.07448Z" fill="white"/>
<path fill-rule="evenodd" clip-rule="evenodd" d="M55.6837 12.84C55.6837 14.2136 55.375 15.3028 53.729 15.5639V15.7401H60.5214V15.5639C58.8734 15.3028 58.5647 14.2136 58.5647 12.84V3.16068C58.5647 1.78915 58.8734 0.697869 60.5214 0.436726V0.26263H53.729V0.436726C55.375 0.697869 55.6837 1.78915 55.6837 3.16068V12.84Z" fill="white"/>
<path fill-rule="evenodd" clip-rule="evenodd" d="M63.1685 0.26263L62.962 5.25407H63.1264C64.2792 1.94201 66.0495 0.610821 67.924 0.610821H68.5415V12.84C68.5415 14.2136 68.2328 15.3028 66.3803 15.5639V15.7401H73.5837V15.5639C71.7312 15.3028 71.4225 14.2136 71.4225 12.84V0.610821H72.04C73.9125 0.610821 75.6828 1.94201 76.8356 5.25407H77L76.7955 0.26263H63.1685Z" fill="white"/>
<path fill-rule="evenodd" clip-rule="evenodd" d="M4.83769 15.3905V3.16132C4.83769 1.78766 5.14644 0.698505 7.20541 0.437362V0.263267H0V0.437362C1.64798 0.698505 1.95673 1.78766 1.95673 3.16132V12.8406C1.95673 14.2143 1.64798 15.3034 0 15.5646V15.7408H12.0632L13.2981 10.1145L13.1337 10.0933C12.3298 12.7535 10.3951 15.3905 6.85456 15.3905H4.83769Z" fill="white"/>
</svg>
