<svg width="118" height="35" viewBox="0 0 118 35" fill="none" xmlns="http://www.w3.org/2000/svg">
<path d="M41.9622 12.1925H40.4309C40.4149 12.1921 40.399 12.1953 40.3841 12.2019C40.3692 12.2086 40.3556 12.2186 40.3441 12.2313C40.3325 12.244 40.3233 12.2592 40.3169 12.276C40.3104 12.2928 40.3069 12.3109 40.3066 12.3293V16.0258C40.308 16.0693 40.3016 16.1126 40.2879 16.1532C40.2742 16.1937 40.2535 16.2307 40.227 16.2617C40.2005 16.2927 40.1687 16.3172 40.1337 16.3337C40.0986 16.3502 40.061 16.3583 40.0232 16.3575H38.0846C38.0467 16.3583 38.0091 16.3503 37.974 16.3338C37.9389 16.3174 37.9071 16.2929 37.8806 16.2619C37.854 16.2308 37.8332 16.1939 37.8195 16.1533C37.8058 16.1127 37.7995 16.0693 37.8008 16.0258V12.328C37.7993 12.2913 37.7856 12.2566 37.7624 12.2311C37.7393 12.2056 37.7086 12.1913 37.6766 12.1912H36.1456C36.1297 12.1908 36.1138 12.194 36.0989 12.2007C36.084 12.2073 36.0704 12.2173 36.0588 12.23C36.0473 12.2427 36.038 12.2579 36.0316 12.2747C36.0252 12.2915 36.0217 12.3097 36.0214 12.328V22.6238C36.0217 22.6422 36.0252 22.6603 36.0316 22.6771C36.038 22.6939 36.0473 22.7091 36.0588 22.7218C36.0704 22.7345 36.084 22.7445 36.0989 22.7512C36.1138 22.7578 36.1297 22.7611 36.1456 22.7607H37.622C37.7066 22.7607 37.8008 22.6809 37.8008 22.6238V18.7214C37.7996 18.6782 37.8061 18.6352 37.8199 18.595C37.8337 18.5548 37.8546 18.5183 37.8812 18.4877C37.9078 18.4572 37.9396 18.4333 37.9746 18.4174C38.0096 18.4016 38.047 18.3942 38.0846 18.3957H40.0232C40.0608 18.3943 40.0982 18.4017 40.1331 18.4176C40.168 18.4334 40.1998 18.4574 40.2264 18.4879C40.2529 18.5184 40.2738 18.5549 40.2876 18.5951C40.3014 18.6352 40.3078 18.6782 40.3066 18.7214V22.6238C40.3069 22.6422 40.3104 22.6603 40.3169 22.6771C40.3233 22.6939 40.3325 22.7091 40.3441 22.7218C40.3556 22.7345 40.3692 22.7445 40.3841 22.7512C40.399 22.7578 40.4149 22.7611 40.4309 22.7607H41.9622C41.9781 22.7611 41.994 22.7578 42.0089 22.7512C42.0238 22.7445 42.0374 22.7345 42.049 22.7218C42.0605 22.7091 42.0698 22.6939 42.0762 22.6771C42.0826 22.6603 42.0861 22.6422 42.0864 22.6238V12.328C42.0855 12.2912 42.0719 12.2562 42.0486 12.2308C42.0253 12.2054 41.9943 12.1916 41.9622 12.1925Z" fill="#003AB4"/>
<path d="M51.006 13.2936C50.474 12.4252 49.5889 11.9742 48.4509 11.9742C47.3009 11.9742 46.4173 12.4252 45.8854 13.2881C45.2985 14.1735 45.1805 15.6021 45.1805 17.4761C45.1805 19.3502 45.2996 20.7783 45.8854 21.6638C46.4173 22.5266 47.302 22.9853 48.4509 22.9853C49.5889 22.9853 50.4688 22.5283 51.0012 21.6638C51.5876 20.7783 51.706 19.3498 51.706 17.4761C51.706 15.6025 51.5869 14.1735 51.006 13.2936ZM49.6587 20.1384C49.4361 20.6696 49.0281 20.9382 48.4509 20.9382C47.864 20.9382 47.4563 20.6696 47.2327 20.1384L47.2275 20.1325C47.0138 19.5727 47.0138 18.6472 47.0138 17.4761C47.0138 16.3051 47.0138 15.3791 47.2275 14.8194C47.4565 14.2822 47.8645 14.0136 48.4516 14.0136C49.0281 14.0136 49.4354 14.2822 49.6594 14.8134C49.8879 15.3791 49.8879 16.3055 49.8879 17.4761C49.8879 18.6468 49.8864 19.5727 49.6579 20.1384H49.6587Z" fill="#003AB4"/>
<path d="M61.0959 22.4695L58.6951 17.6415C58.5805 17.396 58.5557 17.2361 58.7 16.9675L61.0314 12.4487C61.048 12.4193 61.0581 12.3857 61.0608 12.3509C61.0634 12.316 61.0586 12.2809 61.0466 12.2487C61.0266 12.2087 60.9869 12.1916 60.9272 12.1916H59.3013C59.167 12.1916 59.1425 12.2317 59.1024 12.2828L57.1089 16.3754C57.0845 16.4364 57.0424 16.4856 56.9898 16.5148C56.9372 16.544 56.8774 16.5512 56.8207 16.5353C56.7591 16.5224 56.7034 16.4851 56.6633 16.4297C56.6233 16.3743 56.6015 16.3046 56.6019 16.2326V12.328C56.6002 12.2913 56.5865 12.2567 56.5634 12.2312C56.5403 12.2058 56.5096 12.1915 56.4776 12.1912H54.9467C54.9144 12.1904 54.8831 12.2043 54.8597 12.23C54.8364 12.2556 54.8228 12.2909 54.822 12.328V22.6238C54.8228 22.6609 54.8364 22.6962 54.8597 22.7218C54.8831 22.7475 54.9144 22.7615 54.9467 22.7607H56.4776C56.4936 22.7611 56.5095 22.7578 56.5243 22.7512C56.5392 22.7445 56.5528 22.7345 56.5644 22.7218C56.5759 22.7091 56.5852 22.6939 56.5916 22.6771C56.598 22.6603 56.6015 22.6422 56.6019 22.6238V18.6297C56.6017 18.56 56.6224 18.4924 56.6604 18.4381C56.6984 18.3838 56.7514 18.3461 56.8107 18.3313C56.8319 18.3264 56.8536 18.3244 56.8752 18.3253C56.9247 18.324 56.9734 18.3389 57.0157 18.3682C57.058 18.3976 57.0922 18.4403 57.1141 18.4912L59.1073 22.6161C59.1522 22.7078 59.2022 22.759 59.3265 22.759H60.9958C61.0555 22.759 61.0952 22.7419 61.1152 22.7018C61.1468 22.6524 61.1367 22.5607 61.0959 22.4695Z" fill="#003AB4"/>
<path d="M68.8677 20.7668H65.8811C65.8436 20.7682 65.8062 20.7608 65.7712 20.7449C65.7363 20.7291 65.7045 20.7051 65.678 20.6746C65.6514 20.644 65.6306 20.6076 65.6168 20.5674C65.603 20.5273 65.5965 20.4843 65.5977 20.4411V18.6932C65.5965 18.6501 65.603 18.6071 65.6168 18.5669C65.6306 18.5268 65.6514 18.4903 65.678 18.4598C65.7045 18.4292 65.7363 18.4053 65.7712 18.3894C65.8062 18.3736 65.8436 18.3661 65.8811 18.3675H68.7048C68.7371 18.3668 68.7678 18.3513 68.7902 18.3245C68.8126 18.2977 68.8249 18.2619 68.8243 18.2247V16.511C68.8249 16.4738 68.8126 16.4379 68.7902 16.4112C68.7678 16.3844 68.7371 16.3689 68.7048 16.3681H65.8811C65.8436 16.3696 65.8062 16.3621 65.7712 16.3463C65.7363 16.3304 65.7045 16.3065 65.678 16.2759C65.6514 16.2454 65.6306 16.2089 65.6168 16.1688C65.603 16.1286 65.5965 16.0856 65.5977 16.0424V14.5163C65.596 14.4727 65.6021 14.4292 65.6156 14.3885C65.6292 14.3477 65.6499 14.3106 65.6765 14.2796C65.7031 14.2485 65.735 14.224 65.7702 14.2077C65.8054 14.1915 65.8432 14.1837 65.8811 14.185H68.8117C68.8431 14.1845 68.8732 14.1698 68.8954 14.1442C68.9177 14.1185 68.9303 14.0839 68.9307 14.0477V12.328C68.9301 12.2921 68.9173 12.2579 68.895 12.2326C68.8728 12.2073 68.8429 12.1929 68.8117 12.1924H63.9407C63.9247 12.192 63.9088 12.1953 63.8939 12.2019C63.879 12.2086 63.8654 12.2186 63.8539 12.2313C63.8423 12.244 63.8331 12.2592 63.8267 12.276C63.8202 12.2928 63.8167 12.3109 63.8164 12.3293V22.6238C63.8167 22.6422 63.8202 22.6603 63.8267 22.6771C63.8331 22.6939 63.8423 22.7091 63.8539 22.7218C63.8654 22.7345 63.879 22.7445 63.8939 22.7512C63.9088 22.7578 63.9247 22.7611 63.9407 22.7607H68.8677C68.8991 22.7602 68.9292 22.7457 68.9514 22.7201C68.9737 22.6945 68.9864 22.66 68.9867 22.6238V20.9096C68.9871 20.8913 68.9843 20.873 68.9785 20.8559C68.9727 20.8388 68.964 20.8231 68.9529 20.8099C68.9419 20.7966 68.9287 20.786 68.914 20.7786C68.8994 20.7712 68.8836 20.7672 68.8677 20.7668Z" fill="#003AB4"/>
<path d="M76.6281 12.1925H75.0808C75.0493 12.1929 75.0192 12.2074 74.9969 12.233C74.9746 12.2586 74.9619 12.2931 74.9614 12.3293V19.7381C74.9614 20.4577 74.5533 20.9378 73.9572 20.9378C73.3459 20.9378 72.953 20.4688 72.953 19.7381V19.1157C72.9532 19.0969 72.9501 19.0783 72.9439 19.0609C72.9377 19.0435 72.9285 19.0276 72.917 19.0144C72.9054 19.0011 72.8916 18.9905 72.8765 18.9834C72.8614 18.9763 72.8451 18.9727 72.8288 18.9729H71.2281C71.1981 18.9784 71.1168 19.0471 71.1168 19.1157V19.7211C71.1168 21.6395 72.285 22.9836 73.9554 22.9836C75.6807 22.9836 76.7494 21.7324 76.7494 19.7211V12.328C76.7484 12.2917 76.7352 12.2573 76.7126 12.232C76.6899 12.2067 76.6596 12.1925 76.6281 12.1925Z" fill="#003AB4"/>
<path d="M85.5268 17.5558C85.4924 17.5318 85.463 17.4994 85.4407 17.4608C85.4184 17.4223 85.4037 17.3786 85.3977 17.3329C85.3941 17.2714 85.4024 17.2097 85.4222 17.1524C85.442 17.0951 85.4726 17.0436 85.512 17.0016C85.9645 16.5105 86.1978 15.8306 86.1978 15.0364C86.1978 13.4424 85.0197 12.1967 83.5136 12.1967H80.4856C80.4533 12.1976 80.4227 12.2131 80.4004 12.2399C80.3781 12.2666 80.3659 12.3025 80.3665 12.3395V22.6294C80.3667 22.6661 80.3792 22.7014 80.4013 22.7279C80.4235 22.7545 80.4536 22.7703 80.4856 22.7722H83.5136C85.1937 22.7722 86.3225 21.5039 86.3225 19.6175C86.3225 18.7785 86.0239 18.0073 85.5268 17.5558ZM82.0866 14.3159C82.0859 14.2724 82.0929 14.2292 82.1073 14.1889C82.1216 14.1487 82.1429 14.1122 82.1699 14.0817C82.1969 14.0512 82.2291 14.0274 82.2644 14.0117C82.2996 13.9959 82.3374 13.9886 82.3752 13.9902H83.4038C83.951 13.9902 84.3935 14.5504 84.3935 15.2359C84.3935 15.9099 83.951 16.453 83.4038 16.453H82.3752C82.3374 16.4546 82.2996 16.4472 82.2644 16.4315C82.2291 16.4158 82.1969 16.3919 82.1699 16.3615C82.1429 16.331 82.1216 16.2945 82.1073 16.2542C82.0929 16.214 82.0859 16.1708 82.0866 16.1273V14.3159ZM83.3793 20.8521H82.3752C82.337 20.8535 82.2989 20.8459 82.2634 20.8298C82.2278 20.8136 82.1955 20.7893 82.1685 20.7582C82.1414 20.7272 82.1202 20.6901 82.1061 20.6493C82.0921 20.6084 82.0854 20.5647 82.0866 20.5208V18.5099C82.0859 18.4664 82.0929 18.4232 82.1073 18.383C82.1216 18.3427 82.1429 18.3062 82.1699 18.2757C82.1969 18.2453 82.2291 18.2214 82.2644 18.2057C82.2996 18.19 82.3374 18.1827 82.3752 18.1842H83.3793C84.0007 18.1842 84.4878 18.767 84.4878 19.51C84.4878 20.2753 84.0107 20.8525 83.3793 20.8525V20.8521Z" fill="#003AB4"/>
<path d="M95.9283 22.5607L93.4058 12.3054C93.3809 12.2082 93.3316 12.1967 93.2915 12.1967H91.2431C91.1986 12.1967 91.1537 12.2082 91.1289 12.311L88.5786 22.5607C88.5708 22.5886 88.569 22.6183 88.5733 22.6471C88.5777 22.676 88.588 22.7032 88.6034 22.7266C88.6137 22.7423 88.6274 22.7547 88.643 22.7627C88.6586 22.7707 88.6758 22.7739 88.6928 22.7722H90.3733C90.4181 22.7722 90.4627 22.7551 90.4875 22.6579L90.8956 20.9497C90.9104 20.8755 90.9605 20.647 91.2042 20.647H93.2619C93.5304 20.647 93.585 20.9152 93.6002 21.0008L94.0323 22.6579C94.0576 22.7551 94.1021 22.7722 94.147 22.7722H95.8274C95.8416 22.7728 95.8558 22.7694 95.8687 22.7625C95.8816 22.7555 95.8929 22.7451 95.9016 22.7321C95.9173 22.7079 95.9279 22.6798 95.9325 22.65C95.9371 22.6203 95.9357 22.5897 95.9283 22.5607ZM93.0946 18.596C93.0674 18.6336 93.0334 18.6638 92.9949 18.6846C92.9564 18.7053 92.9145 18.7161 92.872 18.7163H91.639C91.5969 18.7169 91.5553 18.7064 91.5173 18.6855C91.4793 18.6647 91.4461 18.6341 91.4201 18.596C91.3933 18.5535 91.375 18.5047 91.3664 18.4532C91.3578 18.4016 91.3591 18.3485 91.3704 18.2976L91.9962 15.2764C92.0411 15.122 92.1446 15.0308 92.2647 15.0419C92.3213 15.0457 92.3753 15.0707 92.4183 15.113C92.4614 15.1554 92.4912 15.2127 92.5033 15.2764L93.1395 18.2985C93.1524 18.3487 93.155 18.4017 93.147 18.4533C93.139 18.5049 93.1207 18.5536 93.0935 18.5956L93.0946 18.596Z" fill="#003AB4"/>
<path d="M103.747 20.7267H100.788C100.751 20.7273 100.713 20.7192 100.679 20.703C100.644 20.6868 100.613 20.6628 100.586 20.6325C100.56 20.6021 100.539 20.566 100.525 20.5263C100.511 20.4865 100.504 20.444 100.504 20.401V12.3395C100.505 12.3207 100.501 12.3021 100.495 12.2847C100.489 12.2673 100.48 12.2515 100.468 12.2382C100.457 12.2249 100.443 12.2144 100.428 12.2072C100.413 12.2001 100.397 12.1965 100.38 12.1967H98.8489C98.8325 12.1965 98.8163 12.2001 98.8012 12.2072C98.786 12.2144 98.7723 12.2249 98.7607 12.2382C98.7491 12.2515 98.74 12.2673 98.7338 12.2847C98.7276 12.3021 98.7245 12.3207 98.7246 12.3395V22.6294C98.7245 22.6482 98.7276 22.6668 98.7338 22.6842C98.74 22.7016 98.7491 22.7174 98.7607 22.7307C98.7723 22.744 98.786 22.7545 98.8012 22.7616C98.8163 22.7688 98.8325 22.7723 98.8489 22.7722H103.745C103.778 22.7716 103.81 22.7564 103.833 22.7297C103.856 22.7031 103.869 22.6671 103.87 22.6294V20.8696C103.87 20.8509 103.867 20.8325 103.861 20.8152C103.855 20.7979 103.846 20.7822 103.834 20.7689C103.823 20.7557 103.809 20.7451 103.794 20.7379C103.78 20.7306 103.764 20.7268 103.747 20.7267Z" fill="#003AB4"/>
<path d="M106.298 14.8305L105.676 14.6194C105.353 14.5222 104.98 14.3334 104.98 13.8094C104.98 13.3806 105.288 13.0779 105.731 13.0779C106.173 13.0779 106.473 13.3695 106.473 13.8094V13.8721L107.397 13.8836L107.407 13.8094C107.407 12.7923 106.736 12.1123 105.732 12.1123C104.742 12.1123 104.025 12.8549 104.025 13.8836C104.025 14.7405 104.443 15.3574 105.175 15.5748L105.851 15.7879C106.309 15.9308 106.528 16.2104 106.528 16.6406C106.528 17.1206 106.179 17.4749 105.692 17.4749C105.205 17.4749 104.852 17.1091 104.852 16.612V16.5208L103.892 16.5093L103.883 16.5664C103.883 17.6692 104.633 18.4421 105.712 18.4421C106.776 18.4421 107.493 17.6825 107.493 16.551C107.491 15.6647 107.098 15.099 106.298 14.8305Z" fill="#003AB4"/>
<path d="M113.109 18.1902L111.702 15.3561C111.627 15.1962 111.602 15.0705 111.702 14.8871L113.069 12.2351C113.084 12.2121 113.084 12.195 113.079 12.1895H112.109C112.06 12.1895 112.054 12.195 112.045 12.218L110.878 14.6135C110.843 14.7107 110.744 14.7622 110.639 14.7392C110.589 14.7287 110.544 14.6984 110.511 14.6536C110.478 14.6087 110.46 14.5522 110.46 14.4937V12.2027L109.55 12.1912L109.539 18.246C109.539 18.249 109.54 18.2518 109.542 18.2539C109.544 18.256 109.546 18.2573 109.549 18.2575H110.449L110.459 15.9035C110.458 15.8458 110.476 15.7898 110.507 15.745C110.539 15.7003 110.583 15.6695 110.633 15.6579C110.649 15.653 110.666 15.651 110.683 15.6519C110.723 15.651 110.763 15.6634 110.797 15.6878C110.831 15.7121 110.859 15.7473 110.876 15.7892L112.05 18.2115C112.065 18.246 112.074 18.2575 112.124 18.2575H113.103C113.123 18.2588 113.123 18.2303 113.109 18.1902Z" fill="#003AB4"/>
<path d="M16.6769 26.9931C16.6895 29.1382 15.465 29.7308 14.0728 28.5593C12.9414 27.6074 10.0061 25.0397 9.97899 25.0128C9.43251 24.5167 9.03958 23.8315 8.85834 23.0586L4.88507 6.031C4.88011 6.01014 4.8794 5.98824 4.883 5.96702C4.88659 5.94579 4.8944 5.9258 4.90581 5.9086C4.91722 5.89141 4.93193 5.87746 4.94879 5.86786C4.96565 5.85826 4.98421 5.85325 5.00303 5.85323L7.02435 5.84939C7.06889 5.84856 7.11238 5.8649 7.14789 5.89581C7.18339 5.92672 7.20886 5.97042 7.22021 6.01992C7.50436 7.26133 9.46522 15.649 10.1003 18.3138C10.5517 20.2083 11.9261 21.1381 13.5527 22.229C14.3503 22.7615 15.2888 23.3375 15.9495 23.7612C16.7374 24.2664 16.6376 24.361 16.6732 25.313C16.6732 25.3134 16.6739 26.4785 16.6769 26.9931Z" fill="#003AB4"/>
<path d="M21.2752 26.9931C21.2626 29.1382 22.4871 29.7308 23.8793 28.5593C25.0107 27.6074 27.9461 25.0397 27.9732 25.0128C28.5196 24.5167 28.9126 23.8315 29.0938 23.0586L33.0671 6.031C33.072 6.01014 33.0728 5.98824 33.0692 5.96702C33.0656 5.94579 33.0577 5.9258 33.0463 5.9086C33.0349 5.89141 33.0202 5.87746 33.0034 5.86786C32.9865 5.85826 32.9679 5.85325 32.9491 5.85323L30.9278 5.84939C30.8833 5.84856 30.8398 5.8649 30.8043 5.89581C30.7688 5.92672 30.7433 5.97042 30.7319 6.01992C30.4478 7.26133 28.4869 15.649 27.8519 18.3138C27.4004 20.2083 26.026 21.1381 24.3994 22.229C23.6019 22.7615 22.6633 23.3375 22.0027 23.7612C21.2148 24.2664 21.3146 24.361 21.279 25.313C21.279 25.3134 21.2782 26.4785 21.2752 26.9931Z" fill="#003AB4"/>
<path d="M18.9624 19.8673C21.2672 19.8673 23.1356 17.7201 23.1356 15.0713C23.1356 12.4226 21.2672 10.2753 18.9624 10.2753C16.6576 10.2753 14.7892 12.4226 14.7892 15.0713C14.7892 17.7201 16.6576 19.8673 18.9624 19.8673Z" fill="#FA5F00"/>
</svg>
