<svg width="24" height="24" viewBox="0 0 24 24" fill="none" xmlns="http://www.w3.org/2000/svg">
<path fill-rule="evenodd" clip-rule="evenodd" d="M10.856 13.1441C9.686 11.9741 8.804 10.6641 8.218 9.33512C8.094 9.05412 8.167 8.72512 8.384 8.50812L9.203 7.69012C9.874 7.01912 9.874 6.07012 9.288 5.48412L8.114 4.31012C7.333 3.52912 6.067 3.52912 5.286 4.31012L4.634 4.96212C3.893 5.70312 3.584 6.77212 3.784 7.83212C4.278 10.4451 5.796 13.3061 8.245 15.7551C10.694 18.2041 13.555 19.7221 16.168 20.2161C17.228 20.4161 18.297 20.1071 19.038 19.3661L19.689 18.7151C20.47 17.9341 20.47 16.6681 19.689 15.8871L18.516 14.7141C17.93 14.1281 16.98 14.1281 16.395 14.7141L15.492 15.6181C15.275 15.8351 14.946 15.9081 14.665 15.7841C13.336 15.1971 12.026 14.3141 10.856 13.1441Z" stroke="white" stroke-width="1.5" stroke-linecap="round" stroke-linejoin="round"/>
</svg>
