<svg width="64" height="64" viewBox="0 0 64 64" fill="none" xmlns="http://www.w3.org/2000/svg">
  
  <circle cx="32" cy="32" r="32" fill="#E2E8E9"/>

 
  <g transform="translate(15 23)">
    <path d="M13.9999 21.7775C14.0144 23.9874 12.5616 24.5973 10.9093 23.3907C9.56655 22.4102 6.0824 19.7656 6.05026 19.7379C5.40183 19.2267 4.93552 18.521 4.72026 17.7251L0.00515616 0.18707C-0.000744766 0.165607 -0.00159363 0.143073 0.00267598 0.121228C0.00694559 0.0993838 0.0162179 0.0788187 0.0297699 0.0611372C0.0433218 0.0434557 0.0607871 0.0291361 0.0808023 0.0192959C0.100818 0.00945577 0.122841 0.00436116 0.145156 0.00440931L2.54365 1.81547e-05C2.59651 -0.000633439 2.64808 0.0162713 2.69025 0.0480696C2.73241 0.0798679 2.76277 0.124753 2.77654 0.175654C3.11378 1.45384 5.44095 10.0929 6.19466 12.8381C6.73001 14.7894 8.36158 15.7466 10.2916 16.8707C11.2382 17.4187 12.352 18.0123 13.1361 18.4483C14.0712 18.9691 13.9528 19.0661 13.995 20.0466C13.9933 20.0475 13.9964 21.248 13.9999 21.7775Z" fill="white"/>
    <path d="M20.0001 21.7775C19.9856 23.9874 21.4383 24.5973 23.0905 23.3907C24.4332 22.4102 27.9167 19.7656 27.9492 19.7379C28.5976 19.2267 29.0639 18.521 29.2792 17.7251L33.9948 0.187073C34.0007 0.16561 34.0016 0.143076 33.9973 0.121232C33.9931 0.0993869 33.9838 0.0788218 33.9702 0.0611403C33.9567 0.0434588 33.9392 0.0291392 33.9192 0.019299C33.8992 0.00945885 33.8772 0.00436425 33.8549 0.00441239L31.4561 2.12379e-05C31.4033 -0.00068433 31.3517 0.0162084 31.3096 0.0480224C31.2675 0.0798365 31.2372 0.124753 31.2236 0.175657C30.8864 1.45384 28.5594 10.0929 27.8057 12.8381C27.27 14.7894 25.6389 15.7466 23.709 16.8707C22.7621 17.4187 21.6487 18.0123 20.8647 18.4483C19.9297 18.9691 20.0481 19.0661 20.0058 20.0466C20.005 20.0475 20.0036 21.248 20.0001 21.7775Z" fill="white"/>
    <path d="M17 14C19.7614 14 22 11.9853 22 9.5C22 7.01472 19.7614 5 17 5C14.2386 5 12 7.01472 12 9.5C12 11.9853 14.2386 14 17 14Z" fill="#FA5F00"/>
  </g>
</svg>

