<svg width="48" height="48" viewBox="0 0 48 48" fill="none" xmlns="http://www.w3.org/2000/svg">
<path d="M41.5084 30.1757C42.1352 29.2688 42.4718 28.1966 42.4718 27.067L42.4718 19.5855C42.4718 15.5966 39.2266 12.3514 35.2378 12.3514H29.5028V7.23406C29.5028 3.2452 26.2576 0 22.2688 0H12.5134C8.5245 0 5.2793 3.2452 5.2793 7.23406V17.0329C5.2793 19.1163 6.30176 20.9652 7.87101 22.1047H5.2793V22.3318V23.2972V28.4146C5.2793 32.4035 8.5245 35.6486 12.5134 35.6486H18.2483V37.0543H15.0061V48H35.2378C39.2266 48 42.4718 44.7548 42.4718 40.7659L42.4718 33.2844C42.4718 32.1549 42.1352 31.0827 41.5084 30.1757Z" fill="#6EADF3"/>
<path d="M35.2375 14.7364H14.1486V8.56074H20.6331V11.1589H27.1175V7.23405C27.1175 4.55601 24.9466 2.38502 22.2685 2.38502H12.5131C9.83505 2.38502 7.66406 4.55601 7.66406 7.23405V17.0329C7.66406 19.1754 9.40085 20.9122 11.5433 20.9122H20.6331V27.0879H14.1486V24.4897H7.66406V28.4145C7.66406 31.0926 9.83505 33.2636 12.5131 33.2636H20.6331V39.4393H17.3908V45.615H35.2375C37.9156 45.615 40.0866 43.444 40.0866 40.766L40.0865 33.2844C40.0865 31.5675 38.6947 30.1757 36.9778 30.1757C38.6947 30.1757 40.0865 28.7839 40.0865 27.067L40.0866 19.5855C40.0866 16.9074 37.9156 14.7364 35.2375 14.7364ZM27.1175 39.4393V33.2636H33.6021V39.4393H27.1175ZM33.6021 27.0879H27.1175V20.9122H33.6021V27.0879Z" fill="white"/>
<path d="M39.9486 30.1757C40.7687 29.392 41.2801 28.2882 41.2801 27.067L41.2802 19.5855C41.2802 16.2542 38.5699 13.5439 35.2386 13.5439H15.3422V9.75326H19.4416V12.3514H28.3112V7.23405C28.3112 3.90275 25.6009 1.1925 22.2696 1.1925H12.5142C9.18289 1.1925 6.47266 3.90275 6.47266 7.23405V17.0329C6.47266 19.8295 8.74784 22.1047 11.5444 22.1047H19.4416V25.8954H15.3422V23.2972H6.47266V28.4146C6.47266 31.7459 9.18289 34.4561 12.5142 34.4561H19.4416V38.2468H16.1994V46.8075H35.2386C38.5699 46.8075 41.2802 44.0972 41.2802 40.7659L41.2801 33.2844C41.2801 32.0633 40.7687 30.9594 39.9486 30.1757ZM35.2386 45.615H17.3919V39.4393H20.6342V33.2636H12.5142C9.83616 33.2636 7.66517 31.0926 7.66517 28.4145V24.4897H14.1497V27.0879H20.6342V20.9122H11.5444C9.40195 20.9122 7.66517 19.1754 7.66517 17.0329V7.23405C7.66517 4.55601 9.83616 2.38502 12.5142 2.38502H22.2696C24.9477 2.38502 27.1187 4.55601 27.1187 7.23405V11.1589H20.6342V8.56074H14.1497V14.7364H35.2386C37.9167 14.7364 40.0877 16.9074 40.0877 19.5855L40.0876 27.067C40.0876 28.7839 38.6958 30.1757 36.9789 30.1757C38.6958 30.1757 40.0876 31.5675 40.0876 33.2844L40.0877 40.766C40.0877 43.444 37.9167 45.615 35.2386 45.615Z" fill="#0B2341"/>
<path d="M27.1191 39.4393H33.6037V33.2636H27.1191V39.4393ZM28.3117 34.4561H32.4111V38.2468H28.3117V34.4561Z" fill="#0B2341"/>
<path d="M27.1191 27.0879H33.6037V20.9122H27.1191V27.0879ZM28.3117 22.1047H32.4111V25.8954H28.3117V22.1047Z" fill="#0B2341"/>
<path d="M11.5453 20.2496H21.2976V19.6818H11.5453H10.9774C9.5625 19.6818 8.40313 18.5666 8.33203 17.1691C8.40368 18.8798 9.81721 20.2496 11.5453 20.2496Z" fill="#BDBDBD"/>
<path d="M13.4878 7.89823H21.2973V7.33037H12.9199V15.3989H13.4878V7.89823Z" fill="#BDBDBD"/>
<path d="M25.8885 9.36065V9.92851H25.3206H21.8647H21.2969V10.4964H26.4563V7.23405C26.4563 4.92558 24.5783 3.04753 22.2698 3.04753C24.2652 3.04753 25.8885 4.67087 25.8885 6.66619V7.23405V9.36065Z" fill="#BDBDBD"/>
<path d="M39.4248 27.067L39.4248 19.5855C39.4248 17.277 37.5468 15.3989 35.2383 15.3989C37.2336 15.3989 38.8569 17.0223 38.8569 19.0176V19.5854V19.5855L38.8569 27.067C38.8569 28.1027 38.0143 28.9453 36.9786 28.9453H36.4107V30.8382H36.9786V29.5132C38.3274 29.5132 39.4248 28.4159 39.4248 27.067Z" fill="#BDBDBD"/>
<path d="M36.9792 30.8382C38.0149 30.8382 38.8575 31.6808 38.8575 32.7165L38.8575 40.1981V40.1982V40.7659C38.8575 42.7613 37.2342 44.3846 35.2389 44.3846H34.671H18.6225H18.0547V44.9525H35.2389C37.5473 44.9525 39.4254 43.0744 39.4254 40.7659L39.4253 33.2844C39.4253 31.9356 38.328 30.8382 36.9792 30.8382Z" fill="#BDBDBD"/>
<path d="M21.2971 32.0333H12.5146H11.9468C9.95146 32.0333 8.32812 30.4099 8.32812 28.4146C8.32812 30.723 10.2062 32.6011 12.5146 32.6011H21.2971V32.0333Z" fill="#BDBDBD"/>
<path d="M25.8887 40.1018H26.4565V32.6011H34.266V32.0332H25.8887V40.1018Z" fill="#BDBDBD"/>
<path d="M34.266 19.6818H25.8887V27.7504H26.4565V20.2496H34.266V19.6818Z" fill="#BDBDBD"/>
</svg>
