<svg width="214" height="40" viewBox="0 0 214 40" fill="none" xmlns="http://www.w3.org/2000/svg"><path d="M73.314 10.886h-3.028a.241.241 0 00-.245.236v6.346a.548.548 0 01-.56.568h-3.834a.552.552 0 01-.56-.569v-6.345a.248.248 0 00-.246-.236h-3.025a.242.242 0 00-.246.236v17.676a.241.241 0 00.246.236h2.919c.167 0 .354-.138.354-.236v-6.701a.538.538 0 01.343-.522.544.544 0 01.218-.037h3.833a.543.543 0 01.56.559v6.701a.24.24 0 00.245.236h3.028a.241.241 0 00.246-.236V11.122a.24.24 0 00-.155-.22.243.243 0 00-.093-.016zM91.193 12.78c-1.052-1.491-2.802-2.269-5.052-2.269-2.273 0-4.02.775-5.072 2.255-1.16 1.521-1.394 3.973-1.394 7.19 0 3.217.237 5.668 1.394 7.189 1.052 1.48 2.8 2.265 5.072 2.265 2.25 0 3.99-.785 5.042-2.265 1.16-1.52 1.394-3.972 1.394-7.19 0-3.216-.234-5.665-1.384-7.175zm-2.664 11.749c-.44.912-1.247 1.373-2.388 1.373-1.16 0-1.965-.46-2.408-1.373l-.01-.01c-.422-.961-.422-2.55-.422-4.56s0-3.6.422-4.561c.452-.922 1.26-1.383 2.42-1.383 1.14 0 1.946.46 2.388 1.373.453.972.453 2.562.453 4.57 0 2.01-.002 3.6-.455 4.57zM111.146 28.53l-4.747-8.287c-.226-.422-.276-.696.01-1.157l4.61-7.757a.36.36 0 00.057-.168.352.352 0 00-.028-.176c-.04-.069-.118-.098-.236-.098h-3.214c-.265 0-.315.069-.393.158l-3.941 7.021a.501.501 0 01-.57.276.524.524 0 01-.433-.52v-6.7a.25.25 0 00-.246-.236h-3.027a.242.242 0 00-.246.236v17.676a.24.24 0 00.246.236h3.027a.243.243 0 00.246-.236V21.94a.525.525 0 01.541-.522.508.508 0 01.471.285l3.942 7.083c.088.156.187.245.432.245h3.301c.118 0 .196-.03.235-.098.065-.089.042-.245-.037-.402zM126.509 25.608h-5.907a.542.542 0 01-.56-.559v-3a.536.536 0 01.342-.522.544.544 0 01.218-.037h5.583a.24.24 0 00.235-.245V18.3a.224.224 0 00-.016-.092.241.241 0 00-.219-.153h-5.583a.546.546 0 01-.523-.342.535.535 0 01-.037-.217v-2.618a.53.53 0 01.155-.407.552.552 0 01.405-.163h5.799a.238.238 0 00.236-.235v-2.952a.24.24 0 00-.236-.236h-9.632a.242.242 0 00-.246.236v17.676a.24.24 0 00.246.236h9.74a.239.239 0 00.236-.236v-2.942a.247.247 0 00-.066-.173.242.242 0 00-.17-.075zM141.852 10.886h-3.056a.24.24 0 00-.236.236v12.72c0 1.236-.807 2.06-1.986 2.06-1.209 0-1.985-.805-1.985-2.06v-1.069a.235.235 0 00-.019-.094.236.236 0 00-.133-.133.244.244 0 00-.094-.018h-3.165c-.059.01-.22.127-.22.245v1.04c0 3.293 2.31 5.6 5.612 5.6 3.411 0 5.524-2.148 5.524-5.6v-12.69a.24.24 0 00-.242-.236zM159.447 20.096a.542.542 0 01-.256-.382.713.713 0 01.227-.569c.894-.844 1.356-2.011 1.356-3.374 0-2.737-2.33-4.874-5.308-4.874h-5.986a.243.243 0 00-.169.074.243.243 0 00-.067.171v17.663a.25.25 0 00.236.246h5.986c3.322 0 5.553-2.178 5.553-5.416 0-1.44-.589-2.764-1.572-3.539zm-6.802-5.561a.56.56 0 01.165-.402.542.542 0 01.405-.157h2.038c1.081 0 1.956.96 1.956 2.137 0 1.158-.875 2.09-1.956 2.09h-2.034a.552.552 0 01-.57-.56l-.004-3.108zm2.556 11.22h-1.986a.556.556 0 01-.57-.57v-3.45a.56.56 0 01.165-.403.542.542 0 01.405-.157h1.986c1.228 0 2.192 1 2.192 2.275 0 1.315-.944 2.305-2.192 2.305zM180.01 28.688l-4.987-17.605c-.05-.167-.147-.186-.227-.186h-4.046c-.088 0-.176.019-.226.196l-5.042 17.595a.297.297 0 00-.01.148.3.3 0 00.059.136.195.195 0 00.177.079h3.322c.089 0 .177-.03.226-.197l.807-2.932c.03-.128.128-.52.61-.52h4.069c.531 0 .638.461.668.608l.855 2.844c.049.167.138.197.227.197h3.321a.18.18 0 00.147-.07.332.332 0 00.05-.293zm-5.604-6.806a.567.567 0 01-.44.206h-2.437a.54.54 0 01-.539-.451.617.617 0 01.008-.267l1.239-5.189c.088-.265.293-.421.53-.402a.513.513 0 01.473.402l1.257 5.189a.573.573 0 01-.091.511zM195.47 25.54h-5.847a.558.558 0 01-.52-.345.547.547 0 01-.041-.215V11.142a.237.237 0 00-.151-.227.246.246 0 00-.094-.018h-3.028a.244.244 0 00-.246.245v17.663c0 .032.006.064.018.094a.246.246 0 00.228.151h9.681a.25.25 0 00.246-.245v-3.02a.237.237 0 00-.151-.227.243.243 0 00-.095-.018zM200.513 15.418l-1.228-.366c-.639-.167-1.376-.49-1.376-1.39 0-.736.609-1.256 1.484-1.256s1.466.5 1.466 1.255v.108l1.829.02.019-.128c0-1.746-1.327-2.912-3.312-2.912-1.956 0-3.374 1.275-3.374 3.04 0 1.471.826 2.53 2.274 2.903l1.337.366c.904.245 1.336.726 1.336 1.463 0 .824-.688 1.432-1.651 1.432-.963 0-1.661-.627-1.661-1.48v-.158l-1.898-.02-.019.099c0 1.893 1.484 3.22 3.617 3.22 2.103 0 3.52-1.304 3.52-3.246-.004-1.518-.781-2.49-2.363-2.95zM213.979 21.187l-2.782-4.864c-.147-.274-.196-.49 0-.805l2.703-4.551c.03-.039.03-.068.02-.078h-1.916c-.099 0-.109.01-.128.049l-2.31 4.11c-.069.166-.266.254-.472.215a.43.43 0 01-.354-.422v-3.935l-1.798-.02-.02 10.397c0 .005.002.01.006.013.003.004.008.006.014.006h1.777l.019-4.04a.428.428 0 01.344-.422.358.358 0 01.099-.01.413.413 0 01.383.235l2.32 4.159c.029.059.049.078.147.078h1.937c.041 0 .041-.049.011-.115zM23.323 36.296c.024 3.683-2.396 4.7-5.149 2.688-2.237-1.634-8.041-6.041-8.095-6.088a6.4 6.4 0 01-2.215-3.354L.009.312A.24.24 0 01.242.007L4.238 0a.397.397 0 01.388.293c.561 2.13 4.438 16.528 5.694 21.104.892 3.252 3.61 4.847 6.825 6.72 1.577.914 3.433 1.903 4.739 2.63 1.558.868 1.36 1.03 1.43 2.664-.002.001.003 2.002.009 2.885zM32.413 36.296c-.024 3.683 2.396 4.7 5.149 2.688 2.237-1.634 8.04-6.041 8.095-6.088a6.4 6.4 0 002.215-3.354L55.73.312a.24.24 0 00-.234-.305L51.5 0a.396.396 0 00-.387.293 4801.12 4801.12 0 01-5.694 21.104c-.893 3.252-3.61 4.847-6.826 6.72-1.577.914-3.432 1.903-4.738 2.63-1.558.868-1.36 1.03-1.431 2.664-.002.001-.004 2.002-.01 2.885z" fill="#fff"/><path d="M27.84 24.064c4.557 0 8.251-3.686 8.251-8.233 0-4.547-3.694-8.233-8.25-8.233-4.557 0-8.251 3.686-8.251 8.233 0 4.547 3.694 8.233 8.25 8.233z" fill="#FA5F00"/></svg>