<svg width="220" height="177" viewBox="0 0 220 177" fill="none" xmlns="http://www.w3.org/2000/svg"><path d="M92.058 160.61c.098 16.295-9.458 20.796-20.323 11.897-8.83-7.231-31.737-26.735-31.948-26.939-4.265-3.769-7.331-8.974-8.746-14.844L.034 1.38A1.192 1.192 0 01.018.894C.046.732.107.58.196.45A.988.988 0 01.53.14.873.873 0 01.954.03L16.73 0c.347-.006.687.118.964.353.277.235.476.567.564.943 2.218 9.43 17.52 73.143 22.476 93.385 3.524 14.391 14.25 21.454 26.944 29.741 6.224 4.044 13.548 8.419 18.704 11.638 6.148 3.838 5.37 4.557 5.648 11.788 0 .003.005 8.853.029 12.762zM127.942 160.61c-.098 16.295 9.458 20.796 20.323 11.897 8.829-7.231 31.737-26.735 31.948-26.939 4.265-3.769 7.331-8.974 8.745-14.844L219.966 1.38c.039-.159.044-.325.016-.486a1.133 1.133 0 00-.178-.444.992.992 0 00-.335-.31.877.877 0 00-.424-.11L203.271 0a1.447 1.447 0 00-.964.353 1.765 1.765 0 00-.565.943c-2.217 9.43-17.52 73.143-22.476 93.385-3.523 14.391-14.249 21.454-26.943 29.741-6.224 4.044-13.548 8.419-18.704 11.638-6.149 3.838-5.37 4.557-5.648 11.788 0 .003-.006 8.853-.029 12.762zM109.892 106.482c17.986 0 32.568-16.311 32.568-36.431 0-20.12-14.582-36.43-32.568-36.43-17.987 0-32.568 16.31-32.568 36.43s14.58 36.431 32.568 36.431z" fill="#FFF"/></svg>