<svg width="77" height="16" viewBox="0 0 77 16" fill="none" xmlns="http://www.w3.org/2000/svg"><path fill-rule="evenodd" clip-rule="evenodd" d="M15.583 3.663l3.705 9.263c.473 1.265.288 2.378-1.36 2.64v.173h6.795v-.174c-.742-.11-1.524-.677-2.02-1.92L17.25.002h-.205l-1.461 3.662zM28.855 15.805c3.356.653 6.444-1.744 6.444-4.404 0-5.34-7.514-4.664-7.514-8.632 0-1.614 1.132-2.463 2.367-2.463 1.893 0 3.15 1.44 4.158 4.337h.165L34.268.764C32.951.35 31.696 0 30.152 0c-2.82 0-4.982 2.093-4.982 4.34 0 5.165 7.41 4.227 7.41 8.413 0 1.896-1.564 3.27-3.705 2.833l-.02.219zM42.145 3.074C41.672 1.811 41.856.7 43.505.438V.263H36.71v.175c.742.108 1.523.675 2.019 1.917L44.182 16h.413l4.838-12.098c.986-2.57 1.872-3.03 2.818-3.464V.263h-5.35v.175c2.51.414 2.592 2.244 2.139 3.443l-3.292 8.217-3.603-9.024zM55.684 12.84c0 1.374-.309 2.463-1.955 2.724v.176h6.792v-.176c-1.648-.261-1.956-1.35-1.956-2.724V3.16c0-1.37.308-2.462 1.956-2.723V.263H53.73v.174c1.646.26 1.955 1.352 1.955 2.724v9.679zM63.169.263l-.207 4.991h.164C64.28 1.942 66.05.611 67.924.611h.617V12.84c0 1.374-.308 2.463-2.16 2.724v.176h7.203v-.176c-1.853-.261-2.162-1.35-2.162-2.724V.61h.618c1.872 0 3.643 1.332 4.796 4.644H77L76.796.263H63.168zM4.838 15.39V3.162c0-1.373.308-2.462 2.367-2.724V.263H0v.174C1.648.7 1.957 1.787 1.957 3.161v9.68c0 1.373-.309 2.462-1.957 2.724v.176h12.063l1.235-5.627-.164-.02c-.804 2.66-2.739 5.296-6.28 5.296H4.839z" fill="#fff"/></svg>