<svg width="24" height="24" viewBox="0 0 24 24" fill="none" xmlns="http://www.w3.org/2000/svg"><path d="M15.049 15h2.509a2 2 0 011.897 1.368l.667 2A2 2 0 0118.225 21H5.775a2 2 0 01-1.897-2.632l.667-2A1.998 1.998 0 016.442 15h2.51" stroke="#fff" stroke-width="1.5" stroke-linecap="round" stroke-linejoin="round"/><path clip-rule="evenodd" d="M12 18s-6-4.792-6-9.167C6 5.612 8.686 3 12 3s6 2.612 6 5.833C18 13.208 12 18 12 18z" stroke="#fff" stroke-width="1.5" stroke-linecap="round" stroke-linejoin="round"/><path d="M13.414 7.586a2 2 0 11-2.828 2.828 2 2 0 012.828-2.828" stroke="#fff" stroke-width="1.5" stroke-linecap="round" stroke-linejoin="round"/></svg>