<svg width="118" height="35" viewBox="0 0 118 35" fill="none" xmlns="http://www.w3.org/2000/svg"><path d="M41.962 12.193h-1.531a.109.109 0 00-.047.009.121.121 0 00-.04.03.155.155 0 00-.037.098v3.696a.363.363 0 01-.02.127.33.33 0 01-.06.109.28.28 0 01-.093.072.247.247 0 01-.11.024h-1.94a.247.247 0 01-.11-.024.279.279 0 01-.093-.072.328.328 0 01-.062-.109.366.366 0 01-.018-.127v-3.698a.154.154 0 00-.039-.097.116.116 0 00-.085-.04h-1.531a.107.107 0 00-.047.01.12.12 0 00-.04.029.142.142 0 00-.027.045.158.158 0 00-.01.053v10.296c0 .018.003.036.01.053a.142.142 0 00.027.045.123.123 0 00.04.03c.015.006.03.01.047.009h1.476c.085 0 .179-.08.179-.137V18.72a.36.36 0 01.019-.126.324.324 0 01.061-.107.276.276 0 01.094-.07.243.243 0 01.11-.022h1.938a.243.243 0 01.11.022c.035.015.067.04.093.07.027.03.048.067.062.107.013.04.02.083.019.126v3.903a.155.155 0 00.037.098.121.121 0 00.04.03c.015.006.03.01.047.009h1.531a.109.109 0 00.047-.01.123.123 0 00.04-.03.142.142 0 00.027-.044.157.157 0 00.01-.053V12.328a.15.15 0 00-.037-.097.113.113 0 00-.087-.038zM51.006 13.294c-.532-.869-1.417-1.32-2.555-1.32-1.15 0-2.034.451-2.566 1.314-.587.886-.704 2.314-.704 4.188 0 1.874.119 3.302.704 4.188.532.863 1.417 1.321 2.566 1.321 1.138 0 2.018-.457 2.55-1.321.587-.886.705-2.314.705-4.188 0-1.873-.12-3.302-.7-4.182zm-1.347 6.844c-.223.532-.63.8-1.208.8-.587 0-.995-.268-1.218-.8l-.005-.006c-.214-.56-.214-1.485-.214-2.656 0-1.17 0-2.097.213-2.657.23-.537.638-.805 1.225-.805.576 0 .983.268 1.207.8.229.565.229 1.491.229 2.662 0 1.17-.002 2.097-.23 2.662zM61.096 22.47l-2.4-4.828c-.115-.246-.14-.406.004-.674l2.331-4.52a.237.237 0 00.016-.2c-.02-.04-.06-.056-.12-.056h-1.626c-.134 0-.159.04-.199.09l-1.993 4.093a.274.274 0 01-.12.14.222.222 0 01-.168.02.262.262 0 01-.158-.105.335.335 0 01-.061-.197v-3.905a.155.155 0 00-.039-.097.118.118 0 00-.085-.04h-1.531a.114.114 0 00-.087.039.15.15 0 00-.038.098v10.296a.15.15 0 00.038.098c.023.025.054.04.087.039h1.53a.108.108 0 00.047-.01.123.123 0 00.04-.03.142.142 0 00.028-.044.16.16 0 00.01-.053V18.63c0-.07.02-.138.058-.192a.263.263 0 01.15-.107.242.242 0 01.065-.006.235.235 0 01.14.043c.043.03.077.072.1.123l1.992 4.125c.045.092.095.143.22.143h1.669c.06 0 .1-.017.12-.057.03-.05.02-.141-.02-.233zM68.868 20.767H65.88a.243.243 0 01-.11-.022.274.274 0 01-.093-.07.323.323 0 01-.061-.108.358.358 0 01-.02-.126v-1.748a.36.36 0 01.02-.126.322.322 0 01.061-.107.274.274 0 01.093-.07.244.244 0 01.11-.023h2.824a.115.115 0 00.085-.043.152.152 0 00.034-.1v-1.713a.152.152 0 00-.034-.1.115.115 0 00-.085-.043H65.88a.243.243 0 01-.11-.022.274.274 0 01-.093-.07.322.322 0 01-.061-.107.36.36 0 01-.02-.127v-1.526a.362.362 0 01.019-.127.325.325 0 01.06-.11.277.277 0 01.094-.071.245.245 0 01.111-.023h2.93a.114.114 0 00.084-.04.15.15 0 00.036-.097v-1.72a.148.148 0 00-.036-.095.114.114 0 00-.083-.04H63.94a.109.109 0 00-.047.009.121.121 0 00-.04.03.155.155 0 00-.038.098v10.294a.155.155 0 00.038.098.121.121 0 00.04.03c.015.006.03.01.047.009h4.927a.113.113 0 00.083-.04.149.149 0 00.036-.097V20.91a.157.157 0 00-.034-.1.121.121 0 00-.039-.031.108.108 0 00-.046-.012zM76.628 12.193h-1.547a.113.113 0 00-.084.04.15.15 0 00-.036.096v7.41c0 .719-.408 1.199-1.004 1.199-.611 0-1.004-.47-1.004-1.2v-.622a.158.158 0 00-.036-.102.124.124 0 00-.04-.03.109.109 0 00-.048-.011h-1.6c-.03.005-.112.074-.112.143v.605c0 1.919 1.168 3.263 2.838 3.263 1.726 0 2.794-1.252 2.794-3.263v-7.393a.15.15 0 00-.036-.096.114.114 0 00-.085-.04zM85.527 17.556a.295.295 0 01-.086-.095.345.345 0 01-.043-.128.47.47 0 01.024-.18.42.42 0 01.09-.151c.453-.491.686-1.171.686-1.966 0-1.594-1.178-2.84-2.684-2.84h-3.028a.115.115 0 00-.086.044.152.152 0 00-.034.1v10.29c0 .036.013.071.035.098a.12.12 0 00.085.044h3.028c1.68 0 2.809-1.268 2.809-3.154 0-.84-.3-1.61-.796-2.062zm-3.44-3.24a.36.36 0 01.02-.127.327.327 0 01.063-.107.277.277 0 01.094-.07.245.245 0 01.111-.022h1.029c.547 0 .99.56.99 1.246 0 .674-.443 1.217-.99 1.217h-1.029a.246.246 0 01-.11-.021.278.278 0 01-.095-.07.36.36 0 01-.083-.234v-1.812zm1.292 6.536h-1.004a.248.248 0 01-.112-.022.28.28 0 01-.095-.072.328.328 0 01-.062-.109.367.367 0 01-.02-.128V18.51a.36.36 0 01.084-.234.278.278 0 01.094-.07.248.248 0 01.111-.022h1.004c.622 0 1.109.583 1.109 1.326 0 .765-.477 1.342-1.109 1.342zM95.928 22.56l-2.522-10.255c-.025-.097-.074-.108-.115-.108h-2.048c-.044 0-.09.011-.114.114l-2.55 10.25a.208.208 0 00.024.166c.01.015.024.028.04.036a.09.09 0 00.05.01h1.68c.045 0 .09-.018.114-.115l.409-1.708c.014-.075.064-.303.308-.303h2.058c.268 0 .323.268.338.354l.432 1.657c.026.097.07.114.115.114h1.68a.08.08 0 00.042-.01.094.094 0 00.033-.03.224.224 0 00.027-.171zm-2.833-3.964a.3.3 0 01-.1.089.261.261 0 01-.123.031h-1.233a.245.245 0 01-.122-.03.283.283 0 01-.097-.09.41.41 0 01-.05-.298l.626-3.022c.045-.154.149-.245.269-.234.056.004.11.029.153.071a.31.31 0 01.085.163l.636 3.023a.386.386 0 01-.045.297zM103.747 20.727h-2.959a.246.246 0 01-.109-.024.285.285 0 01-.093-.07.335.335 0 01-.061-.107.378.378 0 01-.021-.125v-8.062a.145.145 0 00-.009-.054.134.134 0 00-.067-.078.108.108 0 00-.048-.01h-1.531a.109.109 0 00-.048.01.125.125 0 00-.04.031.144.144 0 00-.027.047.16.16 0 00-.01.054v10.29a.16.16 0 00.01.055.144.144 0 00.027.047.123.123 0 00.04.03c.015.008.031.011.048.011h4.896a.12.12 0 00.088-.042.16.16 0 00.037-.1v-1.76a.166.166 0 00-.009-.055.134.134 0 00-.067-.077.102.102 0 00-.047-.011zM106.298 14.83l-.622-.21c-.323-.098-.696-.287-.696-.81 0-.43.308-.732.751-.732.442 0 .742.292.742.731v.063l.924.012.01-.075c0-1.017-.671-1.697-1.675-1.697-.99 0-1.707.743-1.707 1.772 0 .857.418 1.473 1.15 1.69l.676.214c.458.143.677.422.677.853 0 .48-.349.834-.836.834s-.84-.366-.84-.863v-.091l-.96-.012-.009.057c0 1.103.75 1.876 1.829 1.876 1.064 0 1.781-.76 1.781-1.891-.002-.886-.395-1.452-1.195-1.72zM113.109 18.19l-1.407-2.834c-.075-.16-.1-.286 0-.469l1.367-2.652c.015-.023.015-.04.01-.045h-.97c-.049 0-.055.005-.064.028l-1.167 2.396a.2.2 0 01-.239.125.215.215 0 01-.128-.085.27.27 0 01-.051-.16v-2.291l-.91-.012-.011 6.055c0 .003.001.006.003.008a.01.01 0 00.007.003h.9l.01-2.354a.272.272 0 01.048-.158.216.216 0 01.176-.093c.04-.001.08.011.114.036.034.024.062.06.079.101l1.174 2.423c.015.034.024.046.074.046h.979c.02 0 .02-.028.006-.068zM16.677 26.993c.012 2.145-1.212 2.738-2.604 1.566a392.47 392.47 0 01-4.094-3.546c-.546-.496-.94-1.182-1.12-1.954L4.884 6.03a.161.161 0 01.02-.122.128.128 0 01.044-.041.11.11 0 01.054-.015l2.021-.004c.045 0 .088.016.124.047.035.03.06.074.072.124.284 1.241 2.245 9.629 2.88 12.294.452 1.894 1.826 2.824 3.453 3.915.797.533 1.736 1.108 2.396 1.532.788.505.689.6.724 1.552 0 0 0 1.166.004 1.68zM21.275 26.993c-.012 2.145 1.212 2.738 2.604 1.566a392.63 392.63 0 004.094-3.546c.547-.496.94-1.182 1.12-1.954L33.068 6.03a.162.162 0 00-.02-.122.128.128 0 00-.044-.041.11.11 0 00-.054-.015l-2.021-.004a.183.183 0 00-.124.047.234.234 0 00-.072.124c-.284 1.241-2.245 9.629-2.88 12.294-.452 1.894-1.826 2.824-3.453 3.915-.797.533-1.736 1.108-2.396 1.532-.788.505-.688.6-.724 1.552 0 0 0 1.166-.004 1.68z" fill="#003AB4"/><path d="M18.962 19.867c2.305 0 4.174-2.147 4.174-4.796 0-2.648-1.869-4.796-4.174-4.796-2.304 0-4.173 2.148-4.173 4.796 0 2.65 1.869 4.796 4.173 4.796z" fill="#FA5F00"/></svg>