<svg width="64" height="64" viewBox="0 0 64 64" fill="none" xmlns="http://www.w3.org/2000/svg"><circle cx="32" cy="32" r="32" fill="#E2E8E9"/><path d="M29 44.778c.014 2.21-1.438 2.82-3.09 1.613a455.842 455.842 0 01-4.86-3.653 3.84 3.84 0 01-1.33-2.013l-4.715-17.538a.144.144 0 01.14-.183L17.544 23a.239.239 0 01.233.176c.337 1.278 2.664 9.917 3.418 12.662.535 1.951 2.167 2.909 4.097 4.033.946.548 2.06 1.141 2.844 1.577.935.521.817.618.859 1.599-.002 0 .001 1.201.005 1.73zM35 44.778c-.014 2.21 1.438 2.82 3.09 1.613 1.343-.98 4.827-3.625 4.86-3.653a3.84 3.84 0 001.33-2.013l4.715-17.538a.144.144 0 00-.076-.168.145.145 0 00-.064-.015L46.456 23a.238.238 0 00-.232.176 2872.82 2872.82 0 01-3.418 12.662c-.536 1.951-2.167 2.909-4.097 4.033-.947.548-2.06 1.141-2.844 1.577-.935.521-.817.618-.86 1.599 0 0-.001 1.201-.005 1.73z" fill="#fff"/><path d="M32 37c2.761 0 5-2.015 5-4.5S34.761 28 32 28s-5 2.015-5 4.5 2.239 4.5 5 4.5z" fill="#FA5F00"/></svg>