<svg width="48" height="48" viewBox="0 0 48 48" fill="none" xmlns="http://www.w3.org/2000/svg"><path d="M41.508 30.176c.627-.907.964-1.98.964-3.109v-7.482c0-3.988-3.245-7.234-7.234-7.234h-5.735V7.234C29.503 3.245 26.258 0 22.269 0h-9.756C8.524 0 5.28 3.245 5.28 7.234v9.799a6.26 6.26 0 002.592 5.072H5.279V28.415c0 3.989 3.245 7.234 7.234 7.234h5.735v1.405h-3.242V48h20.232c3.989 0 7.234-3.245 7.234-7.234v-7.482c0-1.13-.337-2.201-.964-3.108z" fill="#6EADF3"/><path d="M35.237 14.736H14.15V8.561h6.484v2.598h6.485V7.234a4.849 4.849 0 00-4.85-4.849h-9.755a4.849 4.849 0 00-4.849 4.85v9.798a3.88 3.88 0 003.88 3.88h9.09v6.175h-6.485V24.49H7.664v3.925a4.85 4.85 0 004.85 4.849h8.12v6.175H17.39v6.176h17.846a4.85 4.85 0 004.85-4.849v-7.482a3.109 3.109 0 00-3.11-3.108 3.109 3.109 0 003.11-3.109v-7.482a4.85 4.85 0 00-4.85-4.849zm-8.12 24.703v-6.175h6.485v6.175h-6.484zm6.485-12.351h-6.484v-6.176h6.484v6.176z" fill="#fff"/><path d="M39.949 30.176a4.289 4.289 0 001.331-3.109v-7.482a6.049 6.049 0 00-6.041-6.041H15.342v-3.79h4.1v2.597h8.87V7.234a6.048 6.048 0 00-6.042-6.042h-9.756a6.048 6.048 0 00-6.041 6.042v9.799a5.078 5.078 0 005.071 5.072h7.898v3.79h-4.1v-2.598h-8.87v5.118a6.048 6.048 0 006.042 6.041h6.928v3.79h-3.243v8.561h19.04a6.049 6.049 0 006.041-6.041v-7.482a4.29 4.29 0 00-1.331-3.108zm-4.71 15.439H17.392v-6.176h3.242v-6.175h-8.12a4.85 4.85 0 01-4.849-4.85V24.49h6.485v2.598h6.484v-6.176h-9.09a3.88 3.88 0 01-3.879-3.88V7.235a4.849 4.849 0 014.85-4.849h9.755a4.85 4.85 0 014.849 4.85v3.924h-6.485V8.56H14.15v6.175h21.089a4.85 4.85 0 014.849 4.85v7.481a3.109 3.109 0 01-3.11 3.109 3.109 3.109 0 013.11 3.108v7.482a4.85 4.85 0 01-4.85 4.849z" fill="#0B2341"/><path d="M27.12 39.44h6.484v-6.176h-6.485v6.175zm1.192-4.984h4.1v3.79h-4.1v-3.79zM27.12 27.088h6.484v-6.176h-6.485v6.176zm1.192-4.983h4.1v3.79h-4.1v-3.79z" fill="#0B2341"/><path d="M11.545 20.25h9.753v-.568H10.977a2.652 2.652 0 01-2.645-2.513 3.22 3.22 0 003.213 3.08zM13.488 7.898h7.81V7.33H12.92V15.4h.568v-7.5zM25.889 9.36v.569h-4.592v.567h5.16V7.234a4.191 4.191 0 00-4.187-4.186 3.623 3.623 0 013.619 3.618v2.695zM39.425 27.067v-7.482a4.191 4.191 0 00-4.187-4.186 3.623 3.623 0 013.619 3.619v8.049a1.88 1.88 0 01-1.878 1.878h-.568v1.893h.568v-1.325a2.449 2.449 0 002.446-2.446zM36.98 30.838a1.88 1.88 0 011.878 1.879v8.049a3.623 3.623 0 01-3.62 3.619H18.056v.568h17.184a4.191 4.191 0 004.186-4.187v-7.482a2.449 2.449 0 00-2.446-2.446zM21.297 32.033h-9.35a3.623 3.623 0 01-3.619-3.618 4.191 4.191 0 004.187 4.186h8.782v-.568z" fill="#BDBDBD"/><path d="M25.889 40.102h.567v-7.5h7.81v-.569h-8.377v8.069zM34.266 19.682h-8.377v8.068h.567v-7.5h7.81v-.568z" fill="#BDBDBD"/></svg>